%
M48
M72
T01C0.0120
T02C0.0197
T03C0.0354
T04C0.0400
T05C0.0470
T06C0.1260
%
T01
X17621Y13211
X18999Y13211
X19393Y13802
X13093Y11046
X19983Y10456
X20771Y10062
T02
X16243Y11125
X17818Y10771
X13763Y10259
X13763Y8448
X17109Y8093
T03
X22672Y12481
X22672Y11481
X22672Y10481
X22672Y9481
X22672Y8481
X27672Y8481
X27672Y9481
X27672Y10481
X27672Y11481
X27672Y12481
X27672Y13481
X27672Y14481
X27672Y15481
X22672Y15481
X22672Y14481
X22672Y13481
T04
X19936Y7227
X20936Y7227
X20936Y8227
X19936Y8227
X19936Y9227
X20936Y9227
X18542Y16013
X19542Y16013
X20542Y16013
X20542Y17013
X19542Y17013
X18542Y17013
T05
X11478Y7036
X11478Y9004
X11478Y10973
X11478Y12941
X11478Y14910
X11478Y16878
X36754Y14963
X36754Y16932
X36754Y12995
X36754Y11026
X36754Y9058
X36754Y7089
T06
X14196Y12030
X33566Y8960
X33566Y15259
M30
