G75*
G70*
%OFA0B0*%
%FSLAX24Y24*%
%IPPOS*%
%LPD*%
%AMOC8*
5,1,8,0,0,1.08239X$1,22.5*
%
%ADD10C,0.0000*%
%ADD11OC8,0.0600*%
%ADD12C,0.0554*%
%ADD13OC8,0.0740*%
%ADD14C,0.0705*%
%ADD15C,0.0120*%
%ADD16C,0.0240*%
%ADD17C,0.0160*%
%ADD18C,0.0317*%
%ADD19C,0.0400*%
D10*
X007188Y005731D02*
X007188Y018325D01*
X041042Y018325D01*
X041042Y005731D01*
X007188Y005731D01*
X013566Y012030D02*
X013568Y012080D01*
X013574Y012130D01*
X013584Y012179D01*
X013598Y012227D01*
X013615Y012274D01*
X013636Y012319D01*
X013661Y012363D01*
X013689Y012404D01*
X013721Y012443D01*
X013755Y012480D01*
X013792Y012514D01*
X013832Y012544D01*
X013874Y012571D01*
X013918Y012595D01*
X013964Y012616D01*
X014011Y012632D01*
X014059Y012645D01*
X014109Y012654D01*
X014158Y012659D01*
X014209Y012660D01*
X014259Y012657D01*
X014308Y012650D01*
X014357Y012639D01*
X014405Y012624D01*
X014451Y012606D01*
X014496Y012584D01*
X014539Y012558D01*
X014580Y012529D01*
X014619Y012497D01*
X014655Y012462D01*
X014687Y012424D01*
X014717Y012384D01*
X014744Y012341D01*
X014767Y012297D01*
X014786Y012251D01*
X014802Y012203D01*
X014814Y012154D01*
X014822Y012105D01*
X014826Y012055D01*
X014826Y012005D01*
X014822Y011955D01*
X014814Y011906D01*
X014802Y011857D01*
X014786Y011809D01*
X014767Y011763D01*
X014744Y011719D01*
X014717Y011676D01*
X014687Y011636D01*
X014655Y011598D01*
X014619Y011563D01*
X014580Y011531D01*
X014539Y011502D01*
X014496Y011476D01*
X014451Y011454D01*
X014405Y011436D01*
X014357Y011421D01*
X014308Y011410D01*
X014259Y011403D01*
X014209Y011400D01*
X014158Y011401D01*
X014109Y011406D01*
X014059Y011415D01*
X014011Y011428D01*
X013964Y011444D01*
X013918Y011465D01*
X013874Y011489D01*
X013832Y011516D01*
X013792Y011546D01*
X013755Y011580D01*
X013721Y011617D01*
X013689Y011656D01*
X013661Y011697D01*
X013636Y011741D01*
X013615Y011786D01*
X013598Y011833D01*
X013584Y011881D01*
X013574Y011930D01*
X013568Y011980D01*
X013566Y012030D01*
X032936Y008960D02*
X032938Y009010D01*
X032944Y009060D01*
X032954Y009109D01*
X032968Y009157D01*
X032985Y009204D01*
X033006Y009249D01*
X033031Y009293D01*
X033059Y009334D01*
X033091Y009373D01*
X033125Y009410D01*
X033162Y009444D01*
X033202Y009474D01*
X033244Y009501D01*
X033288Y009525D01*
X033334Y009546D01*
X033381Y009562D01*
X033429Y009575D01*
X033479Y009584D01*
X033528Y009589D01*
X033579Y009590D01*
X033629Y009587D01*
X033678Y009580D01*
X033727Y009569D01*
X033775Y009554D01*
X033821Y009536D01*
X033866Y009514D01*
X033909Y009488D01*
X033950Y009459D01*
X033989Y009427D01*
X034025Y009392D01*
X034057Y009354D01*
X034087Y009314D01*
X034114Y009271D01*
X034137Y009227D01*
X034156Y009181D01*
X034172Y009133D01*
X034184Y009084D01*
X034192Y009035D01*
X034196Y008985D01*
X034196Y008935D01*
X034192Y008885D01*
X034184Y008836D01*
X034172Y008787D01*
X034156Y008739D01*
X034137Y008693D01*
X034114Y008649D01*
X034087Y008606D01*
X034057Y008566D01*
X034025Y008528D01*
X033989Y008493D01*
X033950Y008461D01*
X033909Y008432D01*
X033866Y008406D01*
X033821Y008384D01*
X033775Y008366D01*
X033727Y008351D01*
X033678Y008340D01*
X033629Y008333D01*
X033579Y008330D01*
X033528Y008331D01*
X033479Y008336D01*
X033429Y008345D01*
X033381Y008358D01*
X033334Y008374D01*
X033288Y008395D01*
X033244Y008419D01*
X033202Y008446D01*
X033162Y008476D01*
X033125Y008510D01*
X033091Y008547D01*
X033059Y008586D01*
X033031Y008627D01*
X033006Y008671D01*
X032985Y008716D01*
X032968Y008763D01*
X032954Y008811D01*
X032944Y008860D01*
X032938Y008910D01*
X032936Y008960D01*
X032936Y015259D02*
X032938Y015309D01*
X032944Y015359D01*
X032954Y015408D01*
X032968Y015456D01*
X032985Y015503D01*
X033006Y015548D01*
X033031Y015592D01*
X033059Y015633D01*
X033091Y015672D01*
X033125Y015709D01*
X033162Y015743D01*
X033202Y015773D01*
X033244Y015800D01*
X033288Y015824D01*
X033334Y015845D01*
X033381Y015861D01*
X033429Y015874D01*
X033479Y015883D01*
X033528Y015888D01*
X033579Y015889D01*
X033629Y015886D01*
X033678Y015879D01*
X033727Y015868D01*
X033775Y015853D01*
X033821Y015835D01*
X033866Y015813D01*
X033909Y015787D01*
X033950Y015758D01*
X033989Y015726D01*
X034025Y015691D01*
X034057Y015653D01*
X034087Y015613D01*
X034114Y015570D01*
X034137Y015526D01*
X034156Y015480D01*
X034172Y015432D01*
X034184Y015383D01*
X034192Y015334D01*
X034196Y015284D01*
X034196Y015234D01*
X034192Y015184D01*
X034184Y015135D01*
X034172Y015086D01*
X034156Y015038D01*
X034137Y014992D01*
X034114Y014948D01*
X034087Y014905D01*
X034057Y014865D01*
X034025Y014827D01*
X033989Y014792D01*
X033950Y014760D01*
X033909Y014731D01*
X033866Y014705D01*
X033821Y014683D01*
X033775Y014665D01*
X033727Y014650D01*
X033678Y014639D01*
X033629Y014632D01*
X033579Y014629D01*
X033528Y014630D01*
X033479Y014635D01*
X033429Y014644D01*
X033381Y014657D01*
X033334Y014673D01*
X033288Y014694D01*
X033244Y014718D01*
X033202Y014745D01*
X033162Y014775D01*
X033125Y014809D01*
X033091Y014846D01*
X033059Y014885D01*
X033031Y014926D01*
X033006Y014970D01*
X032985Y015015D01*
X032968Y015062D01*
X032954Y015110D01*
X032944Y015159D01*
X032938Y015209D01*
X032936Y015259D01*
D11*
X020542Y016013D03*
X019542Y016013D03*
X018542Y016013D03*
X018542Y017013D03*
X019542Y017013D03*
X020542Y017013D03*
D12*
X022672Y015481D03*
X022672Y014481D03*
X022672Y013481D03*
X022672Y012481D03*
X022672Y011481D03*
X022672Y010481D03*
X022672Y009481D03*
X022672Y008481D03*
X027672Y008481D03*
X027672Y009481D03*
X027672Y010481D03*
X027672Y011481D03*
X027672Y012481D03*
X027672Y013481D03*
X027672Y014481D03*
X027672Y015481D03*
D13*
X020936Y009227D03*
X019936Y009227D03*
X019936Y008227D03*
X020936Y008227D03*
X020936Y007227D03*
X019936Y007227D03*
D14*
X011831Y007036D02*
X011126Y007036D01*
X011126Y009004D02*
X011831Y009004D01*
X011831Y010973D02*
X011126Y010973D01*
X011126Y012941D02*
X011831Y012941D01*
X011831Y014910D02*
X011126Y014910D01*
X011126Y016878D02*
X011831Y016878D01*
X036401Y016932D02*
X037106Y016932D01*
X037106Y014963D02*
X036401Y014963D01*
X036401Y012995D02*
X037106Y012995D01*
X037106Y011026D02*
X036401Y011026D01*
X036401Y009058D02*
X037106Y009058D01*
X037106Y007089D02*
X036401Y007089D01*
D15*
X027672Y009481D02*
X027660Y009471D01*
X023723Y009471D01*
X022739Y010456D01*
X022672Y010481D01*
X021952Y010259D02*
X018999Y013211D01*
X017621Y013211D02*
X017621Y016952D01*
X018408Y016952D01*
X018542Y017013D01*
X018999Y016558D02*
X018605Y016164D01*
X018542Y016013D01*
X019393Y015967D02*
X019542Y016013D01*
X019393Y015967D02*
X020180Y015180D01*
X020967Y015180D01*
X022542Y013605D01*
X022672Y013481D01*
X023330Y013211D02*
X023330Y016164D01*
X020574Y016164D01*
X020542Y016013D01*
X020377Y015574D02*
X019983Y015967D01*
X019983Y016558D01*
X018999Y016558D01*
X020377Y015574D02*
X021558Y015574D01*
X022542Y014589D01*
X022672Y014481D01*
X023330Y013211D02*
X022739Y012621D01*
X022672Y012481D01*
X022149Y011046D02*
X019393Y013802D01*
X022149Y011046D02*
X022149Y010062D01*
X022542Y009668D01*
X022672Y009481D01*
X021952Y009078D02*
X021952Y010259D01*
X021755Y009471D02*
X021164Y010062D01*
X020771Y010062D01*
X019983Y010456D02*
X018999Y009471D01*
X018999Y006715D01*
X020377Y006715D01*
X020771Y007109D01*
X020936Y007227D01*
X020936Y008227D02*
X020967Y008290D01*
X021755Y008290D01*
X021755Y009471D01*
X021952Y009078D02*
X022542Y008487D01*
X022672Y008481D01*
X013093Y011046D02*
X011519Y011046D01*
X011478Y010973D01*
D16*
X013093Y011046D03*
X017621Y013211D03*
X018999Y013211D03*
X019393Y013802D03*
X019983Y010456D03*
X020771Y010062D03*
D17*
X020534Y010169D02*
X019980Y010169D01*
X020006Y010196D02*
X020035Y010196D01*
X020130Y010235D01*
X020204Y010308D01*
X020243Y010404D01*
X020243Y010507D01*
X020204Y010603D01*
X020130Y010676D01*
X020035Y010716D01*
X019931Y010716D01*
X019836Y010676D01*
X019763Y010603D01*
X019723Y010507D01*
X019723Y010478D01*
X018916Y009671D01*
X018799Y009554D01*
X018799Y006633D01*
X018916Y006515D01*
X020460Y006515D01*
X020693Y006749D01*
X020725Y006717D01*
X021147Y006717D01*
X021446Y007016D01*
X021446Y007438D01*
X021157Y007727D01*
X021446Y008016D01*
X021446Y008090D01*
X021838Y008090D01*
X021955Y008207D01*
X021955Y008792D01*
X022255Y008491D01*
X022255Y008398D01*
X022318Y008245D01*
X022436Y008128D01*
X022589Y008064D01*
X022755Y008064D01*
X022908Y008128D01*
X023026Y008245D01*
X023089Y008398D01*
X023089Y008564D01*
X023026Y008717D01*
X022908Y008835D01*
X022755Y008898D01*
X022589Y008898D01*
X022465Y008847D01*
X022152Y009160D01*
X022152Y009776D01*
X022287Y009641D01*
X022255Y009564D01*
X022255Y009398D01*
X022318Y009245D01*
X022436Y009128D01*
X022589Y009064D01*
X022755Y009064D01*
X022908Y009128D01*
X023026Y009245D01*
X023089Y009398D01*
X023089Y009564D01*
X023026Y009717D01*
X022908Y009835D01*
X022755Y009898D01*
X022595Y009898D01*
X022349Y010145D01*
X022349Y010215D01*
X022436Y010128D01*
X022589Y010064D01*
X022755Y010064D01*
X022821Y010091D01*
X023640Y009271D01*
X027308Y009271D01*
X027318Y009245D01*
X027436Y009128D01*
X027589Y009064D01*
X027755Y009064D01*
X027908Y009128D01*
X028026Y009245D01*
X028089Y009398D01*
X028089Y009564D01*
X028026Y009717D01*
X027908Y009835D01*
X027755Y009898D01*
X027589Y009898D01*
X027436Y009835D01*
X027318Y009717D01*
X027299Y009671D01*
X023806Y009671D01*
X023086Y010391D01*
X023089Y010398D01*
X023089Y010564D01*
X023026Y010717D01*
X022908Y010835D01*
X022755Y010898D01*
X022589Y010898D01*
X022436Y010835D01*
X022349Y010748D01*
X022349Y011129D01*
X019653Y013825D01*
X019653Y013854D01*
X019613Y013949D01*
X019540Y014022D01*
X019444Y014062D01*
X019341Y014062D01*
X019245Y014022D01*
X019172Y013949D01*
X019133Y013854D01*
X019133Y013750D01*
X019172Y013655D01*
X019245Y013582D01*
X019341Y013542D01*
X019370Y013542D01*
X021949Y010963D01*
X021949Y010545D01*
X019259Y013234D01*
X019259Y013263D01*
X019219Y013359D01*
X019146Y013432D01*
X019051Y013471D01*
X018947Y013471D01*
X018852Y013432D01*
X018778Y013359D01*
X018739Y013263D01*
X018739Y013160D01*
X018778Y013064D01*
X018852Y012991D01*
X018947Y012951D01*
X018976Y012951D01*
X021752Y010176D01*
X021752Y009757D01*
X021247Y010262D01*
X020938Y010262D01*
X020918Y010282D01*
X020822Y010322D01*
X020719Y010322D01*
X020623Y010282D01*
X020550Y010209D01*
X020511Y010114D01*
X020511Y010010D01*
X020550Y009915D01*
X020623Y009841D01*
X020719Y009802D01*
X020822Y009802D01*
X020918Y009841D01*
X020938Y009862D01*
X021081Y009862D01*
X021555Y009388D01*
X021555Y008490D01*
X021394Y008490D01*
X021157Y008727D01*
X021446Y009016D01*
X021446Y009438D01*
X021147Y009737D01*
X020725Y009737D01*
X020464Y009477D01*
X020164Y009777D01*
X019956Y009777D01*
X019956Y009247D01*
X019916Y009247D01*
X019916Y009207D01*
X019386Y009207D01*
X019386Y008999D01*
X019686Y008699D01*
X019426Y008438D01*
X019426Y008016D01*
X019715Y007727D01*
X019426Y007438D01*
X019426Y007016D01*
X019526Y006915D01*
X019199Y006915D01*
X019199Y009388D01*
X020006Y010196D01*
X020212Y010328D02*
X021600Y010328D01*
X021752Y010169D02*
X021340Y010169D01*
X021498Y010011D02*
X021752Y010011D01*
X021752Y009852D02*
X021657Y009852D01*
X021408Y009535D02*
X021349Y009535D01*
X021446Y009377D02*
X021555Y009377D01*
X021555Y009218D02*
X021446Y009218D01*
X021446Y009060D02*
X021555Y009060D01*
X021555Y008901D02*
X021331Y008901D01*
X021173Y008743D02*
X021555Y008743D01*
X021555Y008584D02*
X021300Y008584D01*
X021955Y008584D02*
X022162Y008584D01*
X022255Y008426D02*
X021955Y008426D01*
X021955Y008267D02*
X022309Y008267D01*
X022481Y008109D02*
X021856Y008109D01*
X021380Y007950D02*
X040862Y007950D01*
X040862Y007792D02*
X021222Y007792D01*
X021251Y007633D02*
X040862Y007633D01*
X040862Y007475D02*
X037474Y007475D01*
X037453Y007495D02*
X037385Y007545D01*
X037311Y007583D01*
X037231Y007609D01*
X037148Y007622D01*
X036791Y007622D01*
X036791Y007127D01*
X036716Y007127D01*
X036716Y007622D01*
X036359Y007622D01*
X036276Y007609D01*
X036197Y007583D01*
X036122Y007545D01*
X036054Y007495D01*
X035995Y007436D01*
X035946Y007368D01*
X035908Y007294D01*
X035882Y007214D01*
X035869Y007131D01*
X035869Y007127D01*
X036716Y007127D01*
X036716Y007052D01*
X035869Y007052D01*
X035869Y007047D01*
X035882Y006965D01*
X035908Y006885D01*
X035946Y006810D01*
X035995Y006742D01*
X036054Y006683D01*
X036122Y006634D01*
X036197Y006596D01*
X036276Y006570D01*
X036359Y006557D01*
X036716Y006557D01*
X036716Y007052D01*
X036791Y007052D01*
X036791Y007127D01*
X037639Y007127D01*
X037639Y007131D01*
X037626Y007214D01*
X037600Y007294D01*
X037562Y007368D01*
X037512Y007436D01*
X037453Y007495D01*
X037588Y007316D02*
X040862Y007316D01*
X040862Y007158D02*
X037634Y007158D01*
X037639Y007052D02*
X036791Y007052D01*
X036791Y006557D01*
X037148Y006557D01*
X037231Y006570D01*
X037311Y006596D01*
X037385Y006634D01*
X037453Y006683D01*
X037512Y006742D01*
X037562Y006810D01*
X037600Y006885D01*
X037626Y006965D01*
X037639Y007047D01*
X037639Y007052D01*
X037631Y006999D02*
X040862Y006999D01*
X040862Y006841D02*
X037577Y006841D01*
X037452Y006682D02*
X040862Y006682D01*
X040862Y006524D02*
X020468Y006524D01*
X020626Y006682D02*
X036055Y006682D01*
X035930Y006841D02*
X021271Y006841D01*
X021429Y006999D02*
X035876Y006999D01*
X035873Y007158D02*
X021446Y007158D01*
X021446Y007316D02*
X035919Y007316D01*
X036033Y007475D02*
X021410Y007475D01*
X022863Y008109D02*
X027407Y008109D01*
X027433Y008090D02*
X027497Y008058D01*
X027565Y008035D01*
X027636Y008024D01*
X027664Y008024D01*
X027664Y008473D01*
X027681Y008473D01*
X027681Y008490D01*
X028129Y008490D01*
X028129Y008517D01*
X028118Y008588D01*
X028096Y008657D01*
X028063Y008721D01*
X028021Y008779D01*
X027970Y008830D01*
X027912Y008872D01*
X027848Y008905D01*
X027779Y008927D01*
X027708Y008938D01*
X027681Y008938D01*
X027681Y008490D01*
X027664Y008490D01*
X027664Y008938D01*
X027636Y008938D01*
X027565Y008927D01*
X027497Y008905D01*
X027433Y008872D01*
X027374Y008830D01*
X027323Y008779D01*
X027281Y008721D01*
X027248Y008657D01*
X027226Y008588D01*
X027215Y008517D01*
X027215Y008490D01*
X027664Y008490D01*
X027664Y008473D01*
X027215Y008473D01*
X027215Y008445D01*
X027226Y008374D01*
X027248Y008306D01*
X027281Y008242D01*
X027323Y008183D01*
X027374Y008132D01*
X027433Y008090D01*
X027664Y008109D02*
X027681Y008109D01*
X027681Y008024D02*
X027708Y008024D01*
X027779Y008035D01*
X027848Y008058D01*
X027912Y008090D01*
X027970Y008132D01*
X028021Y008183D01*
X028063Y008242D01*
X028096Y008306D01*
X028118Y008374D01*
X028129Y008445D01*
X028129Y008473D01*
X027681Y008473D01*
X027681Y008024D01*
X027664Y008267D02*
X027681Y008267D01*
X027664Y008426D02*
X027681Y008426D01*
X027664Y008584D02*
X027681Y008584D01*
X027664Y008743D02*
X027681Y008743D01*
X027664Y008901D02*
X027681Y008901D01*
X027855Y008901D02*
X032756Y008901D01*
X032756Y008798D02*
X032879Y008501D01*
X033107Y008273D01*
X033405Y008150D01*
X033727Y008150D01*
X034025Y008273D01*
X034252Y008501D01*
X034376Y008798D01*
X034376Y009121D01*
X034252Y009418D01*
X034025Y009646D01*
X033727Y009769D01*
X033405Y009769D01*
X033107Y009646D01*
X032879Y009418D01*
X032756Y009121D01*
X032756Y008798D01*
X032779Y008743D02*
X028047Y008743D01*
X028119Y008584D02*
X032845Y008584D01*
X032954Y008426D02*
X028126Y008426D01*
X028076Y008267D02*
X033121Y008267D01*
X034011Y008267D02*
X040862Y008267D01*
X040862Y008109D02*
X027937Y008109D01*
X027268Y008267D02*
X023035Y008267D01*
X023089Y008426D02*
X027218Y008426D01*
X027226Y008584D02*
X023081Y008584D01*
X023001Y008743D02*
X027297Y008743D01*
X027489Y008901D02*
X022411Y008901D01*
X022252Y009060D02*
X032756Y009060D01*
X032796Y009218D02*
X027999Y009218D01*
X028080Y009377D02*
X032862Y009377D01*
X032996Y009535D02*
X028089Y009535D01*
X028036Y009694D02*
X033222Y009694D01*
X033910Y009694D02*
X040862Y009694D01*
X040862Y009852D02*
X027867Y009852D01*
X027861Y009971D02*
X027986Y009919D01*
X036389Y009919D01*
X036514Y009971D01*
X037078Y010534D01*
X037204Y010534D01*
X037385Y010609D01*
X037524Y010747D01*
X037599Y010928D01*
X037599Y011124D01*
X037524Y011305D01*
X037385Y011444D01*
X037204Y011519D01*
X036303Y011519D01*
X036122Y011444D01*
X035984Y011305D01*
X035909Y011124D01*
X035909Y010928D01*
X035984Y010747D01*
X036122Y010609D01*
X036146Y010599D01*
X028195Y010599D01*
X028114Y010679D01*
X028087Y010715D01*
X028067Y010727D01*
X028050Y010744D01*
X028009Y010761D01*
X027971Y010783D01*
X027958Y010785D01*
X027908Y010835D01*
X027755Y010898D01*
X027589Y010898D01*
X027436Y010835D01*
X027318Y010717D01*
X027255Y010564D01*
X027255Y010398D01*
X027318Y010245D01*
X027436Y010128D01*
X027589Y010064D01*
X027755Y010064D01*
X027764Y010068D01*
X027766Y010066D01*
X027861Y009971D01*
X027821Y010011D02*
X023467Y010011D01*
X023308Y010169D02*
X027394Y010169D01*
X027284Y010328D02*
X023150Y010328D01*
X023089Y010486D02*
X027255Y010486D01*
X027288Y010645D02*
X023056Y010645D01*
X022940Y010803D02*
X027404Y010803D01*
X027940Y010803D02*
X035960Y010803D01*
X035909Y010962D02*
X022349Y010962D01*
X022349Y011120D02*
X022454Y011120D01*
X022436Y011128D02*
X022589Y011064D01*
X022755Y011064D01*
X022908Y011128D01*
X023026Y011245D01*
X023089Y011398D01*
X023089Y011564D01*
X023026Y011717D01*
X022908Y011835D01*
X022755Y011898D01*
X022589Y011898D01*
X022436Y011835D01*
X022318Y011717D01*
X022255Y011564D01*
X022255Y011398D01*
X022318Y011245D01*
X022436Y011128D01*
X022304Y011279D02*
X022199Y011279D01*
X022255Y011437D02*
X022040Y011437D01*
X021882Y011596D02*
X022268Y011596D01*
X022355Y011754D02*
X021723Y011754D01*
X021565Y011913D02*
X027652Y011913D01*
X027665Y011925D02*
X027638Y011898D01*
X027589Y011898D01*
X027436Y011835D01*
X027318Y011717D01*
X027255Y011564D01*
X027255Y011398D01*
X027318Y011245D01*
X027436Y011128D01*
X027589Y011064D01*
X027755Y011064D01*
X027908Y011128D01*
X028026Y011245D01*
X028047Y011297D01*
X028122Y011297D01*
X028247Y011348D01*
X029376Y012478D01*
X036193Y012478D01*
X036277Y012513D01*
X036303Y012502D01*
X037204Y012502D01*
X037385Y012577D01*
X037524Y012716D01*
X037599Y012897D01*
X037599Y013093D01*
X037524Y013274D01*
X037385Y013412D01*
X037204Y013487D01*
X036303Y013487D01*
X036122Y013412D01*
X035984Y013274D01*
X035936Y013158D01*
X035765Y013158D01*
X037078Y014471D01*
X037204Y014471D01*
X037385Y014546D01*
X037524Y014684D01*
X037599Y014865D01*
X037599Y015061D01*
X037524Y015242D01*
X037385Y015381D01*
X037204Y015456D01*
X036303Y015456D01*
X036122Y015381D01*
X035984Y015242D01*
X035909Y015061D01*
X035909Y014865D01*
X035984Y014684D01*
X036122Y014546D01*
X036171Y014526D01*
X035393Y013748D01*
X028678Y013748D01*
X031344Y016415D01*
X036193Y016415D01*
X036277Y016450D01*
X036303Y016439D01*
X037204Y016439D01*
X037385Y016514D01*
X037524Y016653D01*
X037599Y016834D01*
X037599Y017030D01*
X037524Y017211D01*
X037385Y017349D01*
X037204Y017424D01*
X036303Y017424D01*
X036122Y017349D01*
X035984Y017211D01*
X035936Y017095D01*
X031136Y017095D01*
X031011Y017043D01*
X030915Y016947D01*
X027913Y013945D01*
X027890Y013945D01*
X027857Y013952D01*
X027823Y013945D01*
X027790Y013945D01*
X027758Y013932D01*
X027724Y013925D01*
X027696Y013906D01*
X027676Y013898D01*
X027589Y013898D01*
X027436Y013835D01*
X027318Y013717D01*
X027255Y013564D01*
X027255Y013398D01*
X027318Y013245D01*
X027436Y013128D01*
X027589Y013064D01*
X027755Y013064D01*
X027865Y013109D01*
X027654Y012898D01*
X027589Y012898D01*
X027436Y012835D01*
X027318Y012717D01*
X027255Y012564D01*
X027255Y012398D01*
X027318Y012245D01*
X027436Y012128D01*
X027589Y012064D01*
X027755Y012064D01*
X027908Y012128D01*
X028026Y012245D01*
X028071Y012354D01*
X028081Y012364D01*
X028116Y012390D01*
X028128Y012411D01*
X028785Y013068D01*
X029005Y013068D01*
X028947Y013010D01*
X027913Y011977D01*
X027872Y011977D01*
X027819Y011981D01*
X027805Y011977D01*
X027790Y011977D01*
X027741Y011956D01*
X027690Y011940D01*
X027679Y011931D01*
X027665Y011925D01*
X027572Y012071D02*
X022772Y012071D01*
X022755Y012064D02*
X022908Y012128D01*
X023026Y012245D01*
X023089Y012398D01*
X023089Y012564D01*
X023053Y012652D01*
X023412Y013011D01*
X023530Y013129D01*
X023530Y016247D01*
X023412Y016364D01*
X020812Y016364D01*
X020724Y016453D01*
X020359Y016453D01*
X020183Y016276D01*
X020183Y016641D01*
X020066Y016758D01*
X019909Y016758D01*
X019982Y016830D01*
X019982Y017195D01*
X019724Y017453D01*
X019359Y017453D01*
X019102Y017195D01*
X019102Y016830D01*
X019174Y016758D01*
X018916Y016758D01*
X018611Y016453D01*
X018359Y016453D01*
X018102Y016195D01*
X018102Y015830D01*
X018359Y015573D01*
X018724Y015573D01*
X018982Y015830D01*
X018982Y016195D01*
X018950Y016226D01*
X019082Y016358D01*
X019265Y016358D01*
X019102Y016195D01*
X019102Y015830D01*
X019359Y015573D01*
X019504Y015573D01*
X020097Y014980D01*
X020885Y014980D01*
X022268Y013596D01*
X022255Y013564D01*
X022255Y013398D01*
X022318Y013245D01*
X022436Y013128D01*
X022589Y013064D01*
X022755Y013064D01*
X022908Y013128D01*
X023026Y013245D01*
X023089Y013398D01*
X023089Y013564D01*
X023026Y013717D01*
X022908Y013835D01*
X022755Y013898D01*
X022589Y013898D01*
X022549Y013882D01*
X021167Y015263D01*
X021057Y015374D01*
X021475Y015374D01*
X022264Y014585D01*
X022255Y014564D01*
X022255Y014398D01*
X022318Y014245D01*
X022436Y014128D01*
X022589Y014064D01*
X022755Y014064D01*
X022908Y014128D01*
X023026Y014245D01*
X023089Y014398D01*
X023089Y014564D01*
X023026Y014717D01*
X022908Y014835D01*
X022755Y014898D01*
X022589Y014898D01*
X022538Y014877D01*
X021758Y015657D01*
X021641Y015774D01*
X020925Y015774D01*
X020982Y015830D01*
X020982Y015964D01*
X023130Y015964D01*
X023130Y013294D01*
X022734Y012898D01*
X022589Y012898D01*
X022436Y012835D01*
X022318Y012717D01*
X022255Y012564D01*
X022255Y012398D01*
X022318Y012245D01*
X022436Y012128D01*
X022589Y012064D01*
X022755Y012064D01*
X022572Y012071D02*
X021406Y012071D01*
X021248Y012230D02*
X022334Y012230D01*
X022259Y012388D02*
X021089Y012388D01*
X020931Y012547D02*
X022255Y012547D01*
X022313Y012705D02*
X020772Y012705D01*
X020614Y012864D02*
X022505Y012864D01*
X022383Y013181D02*
X020297Y013181D01*
X020138Y013339D02*
X022279Y013339D01*
X022255Y013498D02*
X019980Y013498D01*
X019821Y013656D02*
X022208Y013656D01*
X022050Y013815D02*
X019663Y013815D01*
X019589Y013973D02*
X021891Y013973D01*
X021733Y014132D02*
X017821Y014132D01*
X017821Y014290D02*
X021574Y014290D01*
X021416Y014449D02*
X017821Y014449D01*
X017821Y014607D02*
X021257Y014607D01*
X021099Y014766D02*
X017821Y014766D01*
X017821Y014924D02*
X020940Y014924D01*
X021348Y015083D02*
X021766Y015083D01*
X021608Y015241D02*
X021189Y015241D01*
X021506Y014924D02*
X021925Y014924D01*
X022083Y014766D02*
X021665Y014766D01*
X021823Y014607D02*
X022242Y014607D01*
X022255Y014449D02*
X021982Y014449D01*
X022140Y014290D02*
X022300Y014290D01*
X022299Y014132D02*
X022432Y014132D01*
X022457Y013973D02*
X023130Y013973D01*
X023130Y013815D02*
X022929Y013815D01*
X023051Y013656D02*
X023130Y013656D01*
X023130Y013498D02*
X023089Y013498D01*
X023065Y013339D02*
X023130Y013339D01*
X023016Y013181D02*
X022962Y013181D01*
X022857Y013022D02*
X020455Y013022D01*
X020048Y012864D02*
X019630Y012864D01*
X019788Y012705D02*
X020207Y012705D01*
X020365Y012547D02*
X019947Y012547D01*
X020105Y012388D02*
X020524Y012388D01*
X020682Y012230D02*
X020264Y012230D01*
X020422Y012071D02*
X020841Y012071D01*
X020999Y011913D02*
X020581Y011913D01*
X020739Y011754D02*
X021158Y011754D01*
X021316Y011596D02*
X020898Y011596D01*
X021056Y011437D02*
X021475Y011437D01*
X021633Y011279D02*
X021215Y011279D01*
X021373Y011120D02*
X021792Y011120D01*
X021949Y010962D02*
X021532Y010962D01*
X021690Y010803D02*
X021949Y010803D01*
X021949Y010645D02*
X021849Y010645D01*
X021441Y010486D02*
X020243Y010486D01*
X020162Y010645D02*
X021283Y010645D01*
X021124Y010803D02*
X013186Y010803D01*
X013145Y010786D02*
X013241Y010826D01*
X013314Y010899D01*
X013353Y010994D01*
X013353Y011098D01*
X013314Y011193D01*
X013241Y011267D01*
X013145Y011306D01*
X013042Y011306D01*
X012946Y011267D01*
X012926Y011246D01*
X012250Y011246D01*
X012248Y011251D01*
X012110Y011390D01*
X011929Y011465D01*
X011028Y011465D01*
X010847Y011390D01*
X010708Y011251D01*
X010633Y011070D01*
X010633Y010875D01*
X010708Y010694D01*
X010847Y010555D01*
X011028Y010480D01*
X011929Y010480D01*
X012110Y010555D01*
X012248Y010694D01*
X012311Y010846D01*
X012926Y010846D01*
X012946Y010826D01*
X013042Y010786D01*
X013145Y010786D01*
X013001Y010803D02*
X012294Y010803D01*
X012199Y010645D02*
X019805Y010645D01*
X019723Y010486D02*
X011944Y010486D01*
X011013Y010486D02*
X007368Y010486D01*
X007368Y010328D02*
X019572Y010328D01*
X019414Y010169D02*
X007368Y010169D01*
X007368Y010011D02*
X019255Y010011D01*
X019097Y009852D02*
X007368Y009852D01*
X007368Y009694D02*
X018938Y009694D01*
X018799Y009535D02*
X007368Y009535D01*
X007368Y009377D02*
X010802Y009377D01*
X010847Y009422D02*
X010708Y009283D01*
X010633Y009102D01*
X010633Y008906D01*
X010708Y008725D01*
X010847Y008586D01*
X011028Y008512D01*
X011929Y008512D01*
X012110Y008586D01*
X012248Y008725D01*
X012323Y008906D01*
X012323Y009102D01*
X012248Y009283D01*
X012110Y009422D01*
X011929Y009497D01*
X011028Y009497D01*
X010847Y009422D01*
X010681Y009218D02*
X007368Y009218D01*
X007368Y009060D02*
X010633Y009060D01*
X010635Y008901D02*
X007368Y008901D01*
X007368Y008743D02*
X010701Y008743D01*
X010852Y008584D02*
X007368Y008584D01*
X007368Y008426D02*
X018799Y008426D01*
X018799Y008584D02*
X012104Y008584D01*
X012256Y008743D02*
X018799Y008743D01*
X018799Y008901D02*
X012321Y008901D01*
X012323Y009060D02*
X018799Y009060D01*
X018799Y009218D02*
X012275Y009218D01*
X012155Y009377D02*
X018799Y009377D01*
X019199Y009377D02*
X019386Y009377D01*
X019386Y009455D02*
X019386Y009247D01*
X019916Y009247D01*
X019916Y009777D01*
X019708Y009777D01*
X019386Y009455D01*
X019346Y009535D02*
X019466Y009535D01*
X019504Y009694D02*
X019625Y009694D01*
X019663Y009852D02*
X020613Y009852D01*
X020681Y009694D02*
X020247Y009694D01*
X020406Y009535D02*
X020523Y009535D01*
X020929Y009852D02*
X021091Y009852D01*
X021191Y009694D02*
X021250Y009694D01*
X020511Y010011D02*
X019821Y010011D01*
X019916Y009694D02*
X019956Y009694D01*
X019956Y009535D02*
X019916Y009535D01*
X019916Y009377D02*
X019956Y009377D01*
X019916Y009218D02*
X019199Y009218D01*
X019199Y009060D02*
X019386Y009060D01*
X019484Y008901D02*
X019199Y008901D01*
X019199Y008743D02*
X019643Y008743D01*
X019572Y008584D02*
X019199Y008584D01*
X019199Y008426D02*
X019426Y008426D01*
X019426Y008267D02*
X019199Y008267D01*
X019199Y008109D02*
X019426Y008109D01*
X019492Y007950D02*
X019199Y007950D01*
X019199Y007792D02*
X019650Y007792D01*
X019621Y007633D02*
X019199Y007633D01*
X019199Y007475D02*
X019462Y007475D01*
X019426Y007316D02*
X019199Y007316D01*
X019199Y007158D02*
X019426Y007158D01*
X019443Y006999D02*
X019199Y006999D01*
X018799Y006999D02*
X012323Y006999D01*
X012323Y006938D02*
X012323Y007133D01*
X012248Y007314D01*
X012110Y007453D01*
X011929Y007528D01*
X011028Y007528D01*
X010847Y007453D01*
X010708Y007314D01*
X010633Y007133D01*
X010633Y006938D01*
X010708Y006757D01*
X010847Y006618D01*
X011028Y006543D01*
X011929Y006543D01*
X012110Y006618D01*
X012248Y006757D01*
X012323Y006938D01*
X012283Y006841D02*
X018799Y006841D01*
X018799Y006682D02*
X012174Y006682D01*
X012313Y007158D02*
X018799Y007158D01*
X018799Y007316D02*
X012247Y007316D01*
X012057Y007475D02*
X018799Y007475D01*
X018799Y007633D02*
X007368Y007633D01*
X007368Y007475D02*
X010899Y007475D01*
X010710Y007316D02*
X007368Y007316D01*
X007368Y007158D02*
X010643Y007158D01*
X010633Y006999D02*
X007368Y006999D01*
X007368Y006841D02*
X010673Y006841D01*
X010783Y006682D02*
X007368Y006682D01*
X007368Y006524D02*
X018908Y006524D01*
X018799Y007792D02*
X007368Y007792D01*
X007368Y007950D02*
X018799Y007950D01*
X018799Y008109D02*
X007368Y008109D01*
X007368Y008267D02*
X018799Y008267D01*
X021955Y008743D02*
X022004Y008743D01*
X022152Y009218D02*
X022345Y009218D01*
X022264Y009377D02*
X022152Y009377D01*
X022152Y009535D02*
X022255Y009535D01*
X022234Y009694D02*
X022152Y009694D01*
X022483Y010011D02*
X022901Y010011D01*
X022867Y009852D02*
X023060Y009852D01*
X023036Y009694D02*
X023218Y009694D01*
X023089Y009535D02*
X023377Y009535D01*
X023535Y009377D02*
X023080Y009377D01*
X022999Y009218D02*
X027345Y009218D01*
X027309Y009694D02*
X023784Y009694D01*
X023625Y009852D02*
X027478Y009852D01*
X028149Y010645D02*
X036086Y010645D01*
X035909Y011120D02*
X027891Y011120D01*
X028040Y011279D02*
X035973Y011279D01*
X036116Y011437D02*
X028335Y011437D01*
X028494Y011596D02*
X040862Y011596D01*
X040862Y011754D02*
X028652Y011754D01*
X028811Y011913D02*
X040862Y011913D01*
X040862Y012071D02*
X028969Y012071D01*
X029128Y012230D02*
X040862Y012230D01*
X040862Y012388D02*
X029286Y012388D01*
X028800Y012864D02*
X028581Y012864D01*
X028642Y012705D02*
X028422Y012705D01*
X028483Y012547D02*
X028264Y012547D01*
X028325Y012388D02*
X028113Y012388D01*
X028166Y012230D02*
X028011Y012230D01*
X028008Y012071D02*
X027772Y012071D01*
X027334Y012230D02*
X023011Y012230D01*
X023085Y012388D02*
X027259Y012388D01*
X027255Y012547D02*
X023089Y012547D01*
X023106Y012705D02*
X027313Y012705D01*
X027505Y012864D02*
X023265Y012864D01*
X023423Y013022D02*
X027778Y013022D01*
X027383Y013181D02*
X023530Y013181D01*
X023530Y013339D02*
X027279Y013339D01*
X027255Y013498D02*
X023530Y013498D01*
X023530Y013656D02*
X027293Y013656D01*
X027416Y013815D02*
X023530Y013815D01*
X023530Y013973D02*
X027941Y013973D01*
X027912Y014090D02*
X027848Y014058D01*
X027779Y014035D01*
X027708Y014024D01*
X027681Y014024D01*
X027681Y014473D01*
X027681Y014490D01*
X028129Y014490D01*
X028129Y014517D01*
X028118Y014588D01*
X028096Y014657D01*
X028063Y014721D01*
X028021Y014779D01*
X027970Y014830D01*
X027912Y014872D01*
X027848Y014905D01*
X027779Y014927D01*
X027708Y014938D01*
X027681Y014938D01*
X027681Y014490D01*
X027664Y014490D01*
X027664Y014938D01*
X027636Y014938D01*
X027565Y014927D01*
X027497Y014905D01*
X027433Y014872D01*
X027374Y014830D01*
X027323Y014779D01*
X027281Y014721D01*
X027248Y014657D01*
X027226Y014588D01*
X027215Y014517D01*
X027215Y014490D01*
X027664Y014490D01*
X027664Y014473D01*
X027681Y014473D01*
X028129Y014473D01*
X028129Y014445D01*
X028118Y014374D01*
X028096Y014306D01*
X028063Y014242D01*
X028021Y014183D01*
X027970Y014132D01*
X027912Y014090D01*
X027969Y014132D02*
X028100Y014132D01*
X028088Y014290D02*
X028258Y014290D01*
X028129Y014449D02*
X028417Y014449D01*
X028575Y014607D02*
X028112Y014607D01*
X028031Y014766D02*
X028734Y014766D01*
X028892Y014924D02*
X027788Y014924D01*
X027681Y014924D02*
X027664Y014924D01*
X027556Y014924D02*
X023530Y014924D01*
X023530Y014766D02*
X027314Y014766D01*
X027232Y014607D02*
X023530Y014607D01*
X023530Y014449D02*
X027215Y014449D01*
X027215Y014445D02*
X027226Y014374D01*
X027248Y014306D01*
X027281Y014242D01*
X027323Y014183D01*
X027374Y014132D01*
X027433Y014090D01*
X027497Y014058D01*
X027565Y014035D01*
X027636Y014024D01*
X027664Y014024D01*
X027664Y014473D01*
X027215Y014473D01*
X027215Y014445D01*
X027256Y014290D02*
X023530Y014290D01*
X023530Y014132D02*
X027375Y014132D01*
X027664Y014132D02*
X027681Y014132D01*
X027664Y014290D02*
X027681Y014290D01*
X027664Y014449D02*
X027681Y014449D01*
X027664Y014607D02*
X027681Y014607D01*
X027664Y014766D02*
X027681Y014766D01*
X027755Y015064D02*
X027908Y015128D01*
X028026Y015245D01*
X028089Y015398D01*
X028089Y015564D01*
X028026Y015717D01*
X029685Y015717D01*
X029843Y015875D02*
X027811Y015875D01*
X027755Y015898D02*
X027908Y015835D01*
X028026Y015717D01*
X028089Y015558D02*
X029526Y015558D01*
X029368Y015400D02*
X028089Y015400D01*
X028022Y015241D02*
X029209Y015241D01*
X029051Y015083D02*
X027800Y015083D01*
X027755Y015064D02*
X027589Y015064D01*
X027436Y015128D01*
X027318Y015245D01*
X027255Y015398D01*
X027255Y015564D01*
X027318Y015717D01*
X023530Y015717D01*
X023530Y015875D02*
X027533Y015875D01*
X027589Y015898D02*
X027436Y015835D01*
X027318Y015717D01*
X027255Y015558D02*
X023530Y015558D01*
X023530Y015400D02*
X027255Y015400D01*
X027322Y015241D02*
X023530Y015241D01*
X023530Y015083D02*
X027544Y015083D01*
X027589Y015898D02*
X027755Y015898D01*
X029695Y014766D02*
X032913Y014766D01*
X032879Y014800D02*
X032756Y015098D01*
X032756Y015420D01*
X032879Y015718D01*
X033107Y015945D01*
X033405Y016069D01*
X033727Y016069D01*
X034025Y015945D01*
X034252Y015718D01*
X034376Y015420D01*
X034376Y015098D01*
X034252Y014800D01*
X034025Y014572D01*
X033727Y014449D01*
X033405Y014449D01*
X033107Y014572D01*
X032879Y014800D01*
X032828Y014924D02*
X029854Y014924D01*
X030012Y015083D02*
X032762Y015083D01*
X032756Y015241D02*
X030171Y015241D01*
X030329Y015400D02*
X032756Y015400D01*
X032813Y015558D02*
X030488Y015558D01*
X030646Y015717D02*
X032879Y015717D01*
X033037Y015875D02*
X030805Y015875D01*
X030963Y016034D02*
X033320Y016034D01*
X033811Y016034D02*
X040862Y016034D01*
X040862Y016192D02*
X031122Y016192D01*
X031280Y016351D02*
X040862Y016351D01*
X040862Y016509D02*
X037373Y016509D01*
X037530Y016668D02*
X040862Y016668D01*
X040862Y016826D02*
X037595Y016826D01*
X037599Y016985D02*
X040862Y016985D01*
X040862Y017143D02*
X037552Y017143D01*
X037433Y017302D02*
X040862Y017302D01*
X040862Y017460D02*
X007368Y017460D01*
X007368Y017302D02*
X010862Y017302D01*
X010847Y017296D02*
X010708Y017157D01*
X010633Y016976D01*
X010633Y016780D01*
X010708Y016599D01*
X010847Y016461D01*
X011028Y016386D01*
X011929Y016386D01*
X012110Y016461D01*
X012248Y016599D01*
X012323Y016780D01*
X012323Y016976D01*
X012248Y017157D01*
X012110Y017296D01*
X011929Y017371D01*
X011028Y017371D01*
X010847Y017296D01*
X010702Y017143D02*
X007368Y017143D01*
X007368Y016985D02*
X010637Y016985D01*
X010633Y016826D02*
X007368Y016826D01*
X007368Y016668D02*
X010680Y016668D01*
X010798Y016509D02*
X007368Y016509D01*
X007368Y016351D02*
X017421Y016351D01*
X017421Y016509D02*
X012158Y016509D01*
X012277Y016668D02*
X017421Y016668D01*
X017421Y016826D02*
X012323Y016826D01*
X012320Y016985D02*
X017421Y016985D01*
X017421Y017034D02*
X017421Y013379D01*
X017401Y013359D01*
X017361Y013263D01*
X017361Y013160D01*
X017401Y013064D01*
X017474Y012991D01*
X017569Y012951D01*
X017673Y012951D01*
X017768Y012991D01*
X017841Y013064D01*
X017881Y013160D01*
X017881Y013263D01*
X017841Y013359D01*
X017821Y013379D01*
X017821Y016752D01*
X018180Y016752D01*
X018359Y016573D01*
X018724Y016573D01*
X018982Y016830D01*
X018982Y017195D01*
X018724Y017453D01*
X018359Y017453D01*
X018102Y017195D01*
X018102Y017152D01*
X017538Y017152D01*
X017421Y017034D01*
X017530Y017143D02*
X012254Y017143D01*
X012095Y017302D02*
X018208Y017302D01*
X018875Y017302D02*
X019208Y017302D01*
X019102Y017143D02*
X018982Y017143D01*
X018982Y016985D02*
X019102Y016985D01*
X019106Y016826D02*
X018977Y016826D01*
X018826Y016668D02*
X018819Y016668D01*
X018667Y016509D02*
X017821Y016509D01*
X017821Y016351D02*
X018257Y016351D01*
X018102Y016192D02*
X017821Y016192D01*
X017821Y016034D02*
X018102Y016034D01*
X018102Y015875D02*
X017821Y015875D01*
X017821Y015717D02*
X018215Y015717D01*
X017821Y015558D02*
X019519Y015558D01*
X019677Y015400D02*
X017821Y015400D01*
X017821Y015241D02*
X019836Y015241D01*
X019994Y015083D02*
X017821Y015083D01*
X017421Y015083D02*
X012292Y015083D01*
X012323Y015007D02*
X012248Y015189D01*
X012110Y015327D01*
X011929Y015402D01*
X011028Y015402D01*
X010847Y015327D01*
X010708Y015189D01*
X010633Y015007D01*
X010633Y014812D01*
X010708Y014631D01*
X010847Y014492D01*
X011028Y014417D01*
X011929Y014417D01*
X012110Y014492D01*
X012248Y014631D01*
X012323Y014812D01*
X012323Y015007D01*
X012323Y014924D02*
X017421Y014924D01*
X017421Y014766D02*
X012304Y014766D01*
X012225Y014607D02*
X017421Y014607D01*
X017421Y014449D02*
X012005Y014449D01*
X010951Y014449D02*
X007368Y014449D01*
X007368Y014607D02*
X010732Y014607D01*
X010652Y014766D02*
X007368Y014766D01*
X007368Y014924D02*
X010633Y014924D01*
X010664Y015083D02*
X007368Y015083D01*
X007368Y015241D02*
X010761Y015241D01*
X011022Y015400D02*
X007368Y015400D01*
X007368Y015558D02*
X017421Y015558D01*
X017421Y015400D02*
X011934Y015400D01*
X012196Y015241D02*
X017421Y015241D01*
X017421Y015717D02*
X007368Y015717D01*
X007368Y015875D02*
X017421Y015875D01*
X017421Y016034D02*
X007368Y016034D01*
X007368Y016192D02*
X017421Y016192D01*
X017821Y016668D02*
X018264Y016668D01*
X018982Y016192D02*
X019102Y016192D01*
X019102Y016034D02*
X018982Y016034D01*
X018982Y015875D02*
X019102Y015875D01*
X019215Y015717D02*
X018868Y015717D01*
X019074Y016351D02*
X019257Y016351D01*
X019977Y016826D02*
X020106Y016826D01*
X020102Y016830D02*
X020359Y016573D01*
X020724Y016573D01*
X020982Y016830D01*
X020982Y017195D01*
X020724Y017453D01*
X020359Y017453D01*
X020102Y017195D01*
X020102Y016830D01*
X020102Y016985D02*
X019982Y016985D01*
X019982Y017143D02*
X020102Y017143D01*
X020208Y017302D02*
X019875Y017302D01*
X020156Y016668D02*
X020264Y016668D01*
X020183Y016509D02*
X030477Y016509D01*
X030319Y016351D02*
X023426Y016351D01*
X023530Y016192D02*
X030160Y016192D01*
X030002Y016034D02*
X023530Y016034D01*
X023130Y015875D02*
X022811Y015875D01*
X022755Y015898D02*
X022589Y015898D01*
X022436Y015835D01*
X022318Y015717D01*
X021698Y015717D01*
X021856Y015558D02*
X022255Y015558D01*
X022255Y015564D02*
X022255Y015398D01*
X022318Y015245D01*
X022436Y015128D01*
X022589Y015064D01*
X022755Y015064D01*
X022908Y015128D01*
X023026Y015245D01*
X023089Y015398D01*
X023089Y015564D01*
X023026Y015717D01*
X023130Y015717D01*
X023026Y015717D02*
X022908Y015835D01*
X022755Y015898D01*
X022533Y015875D02*
X020982Y015875D01*
X020257Y016351D02*
X020183Y016351D01*
X020819Y016668D02*
X030636Y016668D01*
X030794Y016826D02*
X020977Y016826D01*
X020982Y016985D02*
X030953Y016985D01*
X034095Y015875D02*
X040862Y015875D01*
X040862Y015717D02*
X034253Y015717D01*
X034318Y015558D02*
X040862Y015558D01*
X040862Y015400D02*
X037339Y015400D01*
X037524Y015241D02*
X040862Y015241D01*
X040862Y015083D02*
X037590Y015083D01*
X037599Y014924D02*
X040862Y014924D01*
X040862Y014766D02*
X037557Y014766D01*
X037447Y014607D02*
X040862Y014607D01*
X040862Y014449D02*
X037056Y014449D01*
X036897Y014290D02*
X040862Y014290D01*
X040862Y014132D02*
X036739Y014132D01*
X036580Y013973D02*
X040862Y013973D01*
X040862Y013815D02*
X036422Y013815D01*
X036263Y013656D02*
X040862Y013656D01*
X040862Y013498D02*
X036105Y013498D01*
X036049Y013339D02*
X035946Y013339D01*
X035945Y013181D02*
X035788Y013181D01*
X035460Y013815D02*
X028744Y013815D01*
X028903Y013973D02*
X035618Y013973D01*
X035777Y014132D02*
X029061Y014132D01*
X029220Y014290D02*
X035935Y014290D01*
X036094Y014449D02*
X029378Y014449D01*
X029537Y014607D02*
X033072Y014607D01*
X034060Y014607D02*
X036061Y014607D01*
X035950Y014766D02*
X034218Y014766D01*
X034304Y014924D02*
X035909Y014924D01*
X035918Y015083D02*
X034370Y015083D01*
X034376Y015241D02*
X035983Y015241D01*
X036168Y015400D02*
X034376Y015400D01*
X035956Y017143D02*
X020982Y017143D01*
X020875Y017302D02*
X036075Y017302D01*
X040862Y017619D02*
X007368Y017619D01*
X007368Y017777D02*
X040862Y017777D01*
X040862Y017936D02*
X007368Y017936D01*
X007368Y018094D02*
X040862Y018094D01*
X040862Y018145D02*
X007368Y018145D01*
X007368Y005911D01*
X040862Y005911D01*
X040862Y018145D01*
X040862Y013339D02*
X037458Y013339D01*
X037562Y013181D02*
X040862Y013181D01*
X040862Y013022D02*
X037599Y013022D01*
X037585Y012864D02*
X040862Y012864D01*
X040862Y012705D02*
X037513Y012705D01*
X037311Y012547D02*
X040862Y012547D01*
X040862Y011437D02*
X037392Y011437D01*
X037535Y011279D02*
X040862Y011279D01*
X040862Y011120D02*
X037599Y011120D01*
X037599Y010962D02*
X040862Y010962D01*
X040862Y010803D02*
X037547Y010803D01*
X037421Y010645D02*
X040862Y010645D01*
X040862Y010486D02*
X037030Y010486D01*
X036872Y010328D02*
X040862Y010328D01*
X040862Y010169D02*
X036713Y010169D01*
X036555Y010011D02*
X040862Y010011D01*
X040862Y009535D02*
X037240Y009535D01*
X037204Y009550D02*
X037385Y009475D01*
X037524Y009337D01*
X037599Y009156D01*
X037599Y008960D01*
X037524Y008779D01*
X037385Y008640D01*
X037204Y008565D01*
X036303Y008565D01*
X036122Y008640D01*
X035984Y008779D01*
X035909Y008960D01*
X035909Y009156D01*
X035984Y009337D01*
X036122Y009475D01*
X036303Y009550D01*
X037204Y009550D01*
X037484Y009377D02*
X040862Y009377D01*
X040862Y009218D02*
X037573Y009218D01*
X037599Y009060D02*
X040862Y009060D01*
X040862Y008901D02*
X037574Y008901D01*
X037488Y008743D02*
X040862Y008743D01*
X040862Y008584D02*
X037250Y008584D01*
X036257Y008584D02*
X034287Y008584D01*
X034353Y008743D02*
X036020Y008743D01*
X035933Y008901D02*
X034376Y008901D01*
X034376Y009060D02*
X035909Y009060D01*
X035934Y009218D02*
X034335Y009218D01*
X034270Y009377D02*
X036024Y009377D01*
X036267Y009535D02*
X034136Y009535D01*
X034177Y008426D02*
X040862Y008426D01*
X040862Y006365D02*
X007368Y006365D01*
X007368Y006207D02*
X040862Y006207D01*
X040862Y006048D02*
X007368Y006048D01*
X007368Y010645D02*
X010757Y010645D01*
X010663Y010803D02*
X007368Y010803D01*
X007368Y010962D02*
X010633Y010962D01*
X010654Y011120D02*
X007368Y011120D01*
X007368Y011279D02*
X010735Y011279D01*
X010961Y011437D02*
X007368Y011437D01*
X007368Y011596D02*
X013499Y011596D01*
X013509Y011572D02*
X013737Y011344D01*
X014035Y011220D01*
X014357Y011220D01*
X014655Y011344D01*
X014882Y011572D01*
X015006Y011869D01*
X015006Y012191D01*
X014882Y012489D01*
X014655Y012717D01*
X014357Y012840D01*
X014035Y012840D01*
X013737Y012717D01*
X013509Y012489D01*
X013386Y012191D01*
X013386Y011869D01*
X013509Y011572D01*
X013644Y011437D02*
X011996Y011437D01*
X012221Y011279D02*
X012975Y011279D01*
X013211Y011279D02*
X013894Y011279D01*
X013344Y011120D02*
X020807Y011120D01*
X020649Y011279D02*
X014497Y011279D01*
X014748Y011437D02*
X020490Y011437D01*
X020332Y011596D02*
X014892Y011596D01*
X014958Y011754D02*
X020173Y011754D01*
X020015Y011913D02*
X015006Y011913D01*
X015006Y012071D02*
X019856Y012071D01*
X019698Y012230D02*
X014990Y012230D01*
X014924Y012388D02*
X019539Y012388D01*
X019381Y012547D02*
X014825Y012547D01*
X014666Y012705D02*
X019222Y012705D01*
X019064Y012864D02*
X012358Y012864D01*
X012363Y012899D02*
X012363Y012904D01*
X011516Y012904D01*
X011516Y012979D01*
X011441Y012979D01*
X011441Y013474D01*
X011084Y013474D01*
X011001Y013460D01*
X010921Y013435D01*
X010847Y013396D01*
X010779Y013347D01*
X010720Y013288D01*
X010670Y013220D01*
X010632Y013145D01*
X010606Y013066D01*
X010593Y012983D01*
X010593Y012979D01*
X011441Y012979D01*
X011441Y012904D01*
X010593Y012904D01*
X010593Y012899D01*
X010606Y012816D01*
X010632Y012737D01*
X010670Y012662D01*
X010720Y012594D01*
X010779Y012535D01*
X010847Y012486D01*
X010921Y012448D01*
X011001Y012422D01*
X011084Y012409D01*
X011441Y012409D01*
X011441Y012904D01*
X011516Y012904D01*
X011516Y012409D01*
X011873Y012409D01*
X011955Y012422D01*
X012035Y012448D01*
X012110Y012486D01*
X012178Y012535D01*
X012237Y012594D01*
X012286Y012662D01*
X012324Y012737D01*
X012350Y012816D01*
X012363Y012899D01*
X012363Y012979D02*
X012363Y012983D01*
X012350Y013066D01*
X012324Y013145D01*
X012286Y013220D01*
X012237Y013288D01*
X012178Y013347D01*
X012110Y013396D01*
X012035Y013435D01*
X011955Y013460D01*
X011873Y013474D01*
X011516Y013474D01*
X011516Y012979D01*
X012363Y012979D01*
X012357Y013022D02*
X017443Y013022D01*
X017361Y013181D02*
X012306Y013181D01*
X012186Y013339D02*
X017392Y013339D01*
X017421Y013498D02*
X007368Y013498D01*
X007368Y013656D02*
X017421Y013656D01*
X017421Y013815D02*
X007368Y013815D01*
X007368Y013973D02*
X017421Y013973D01*
X017421Y014132D02*
X007368Y014132D01*
X007368Y014290D02*
X017421Y014290D01*
X017821Y013973D02*
X019196Y013973D01*
X019133Y013815D02*
X017821Y013815D01*
X017821Y013656D02*
X019172Y013656D01*
X019414Y013498D02*
X017821Y013498D01*
X017849Y013339D02*
X018770Y013339D01*
X018739Y013181D02*
X017881Y013181D01*
X017799Y013022D02*
X018821Y013022D01*
X019227Y013339D02*
X019573Y013339D01*
X019731Y013181D02*
X019313Y013181D01*
X019471Y013022D02*
X019890Y013022D01*
X022913Y014132D02*
X023130Y014132D01*
X023130Y014290D02*
X023045Y014290D01*
X023089Y014449D02*
X023130Y014449D01*
X023130Y014607D02*
X023071Y014607D01*
X023130Y014766D02*
X022978Y014766D01*
X023130Y014924D02*
X022490Y014924D01*
X022544Y015083D02*
X022332Y015083D01*
X022322Y015241D02*
X022173Y015241D01*
X022255Y015400D02*
X022015Y015400D01*
X022255Y015564D02*
X022318Y015717D01*
X023089Y015558D02*
X023130Y015558D01*
X023130Y015400D02*
X023089Y015400D01*
X023130Y015241D02*
X023022Y015241D01*
X023130Y015083D02*
X022800Y015083D01*
X028739Y013022D02*
X028959Y013022D01*
X027355Y011754D02*
X022989Y011754D01*
X023076Y011596D02*
X027268Y011596D01*
X027255Y011437D02*
X023089Y011437D01*
X023040Y011279D02*
X027304Y011279D01*
X027454Y011120D02*
X022891Y011120D01*
X022404Y010803D02*
X022349Y010803D01*
X022349Y010169D02*
X022394Y010169D01*
X020966Y010962D02*
X013340Y010962D01*
X013434Y011754D02*
X007368Y011754D01*
X007368Y011913D02*
X013386Y011913D01*
X013386Y012071D02*
X007368Y012071D01*
X007368Y012230D02*
X013402Y012230D01*
X013467Y012388D02*
X007368Y012388D01*
X007368Y012547D02*
X010767Y012547D01*
X010648Y012705D02*
X007368Y012705D01*
X007368Y012864D02*
X010599Y012864D01*
X010599Y013022D02*
X007368Y013022D01*
X007368Y013181D02*
X010650Y013181D01*
X010771Y013339D02*
X007368Y013339D01*
X011441Y013339D02*
X011516Y013339D01*
X011516Y013181D02*
X011441Y013181D01*
X011441Y013022D02*
X011516Y013022D01*
X011516Y012864D02*
X011441Y012864D01*
X011441Y012705D02*
X011516Y012705D01*
X011516Y012547D02*
X011441Y012547D01*
X012189Y012547D02*
X013567Y012547D01*
X013725Y012705D02*
X012308Y012705D01*
X036716Y007475D02*
X036791Y007475D01*
X036791Y007316D02*
X036716Y007316D01*
X036716Y007158D02*
X036791Y007158D01*
X036791Y006999D02*
X036716Y006999D01*
X036716Y006841D02*
X036791Y006841D01*
X036791Y006682D02*
X036716Y006682D01*
D18*
X017818Y010771D03*
X016243Y011125D03*
X013763Y010259D03*
X013763Y008448D03*
X017109Y008093D03*
D19*
X027672Y010481D02*
X027857Y010456D01*
X028054Y010259D01*
X036322Y010259D01*
X036912Y010849D01*
X036754Y011026D01*
X036125Y012818D02*
X036322Y013015D01*
X036715Y013015D01*
X036754Y012995D01*
X036125Y012818D02*
X029235Y012818D01*
X028054Y011637D01*
X027857Y011637D01*
X027672Y011481D01*
X027672Y012481D02*
X027857Y012621D01*
X028645Y013408D01*
X035534Y013408D01*
X036912Y014786D01*
X036754Y014963D01*
X036125Y016755D02*
X036322Y016952D01*
X036715Y016952D01*
X036754Y016932D01*
X036125Y016755D02*
X031204Y016755D01*
X028054Y013605D01*
X027857Y013605D01*
X027672Y013481D01*
M02*
