G75*
G70*
%OFA0B0*%
%FSLAX24Y24*%
%IPPOS*%
%LPD*%
%AMOC8*
5,1,8,0,0,1.08239X$1,22.5*
%
%ADD10C,0.0000*%
%ADD11C,0.0030*%
%ADD12C,0.0020*%
%ADD13C,0.0060*%
%ADD14C,0.0010*%
%ADD15C,0.0080*%
%ADD16C,0.0050*%
%ADD17C,0.0070*%
D10*
X007188Y005731D02*
X007188Y018325D01*
X041042Y018325D01*
X041042Y005731D01*
X007188Y005731D01*
X013566Y012030D02*
X013568Y012080D01*
X013574Y012130D01*
X013584Y012179D01*
X013598Y012227D01*
X013615Y012274D01*
X013636Y012319D01*
X013661Y012363D01*
X013689Y012404D01*
X013721Y012443D01*
X013755Y012480D01*
X013792Y012514D01*
X013832Y012544D01*
X013874Y012571D01*
X013918Y012595D01*
X013964Y012616D01*
X014011Y012632D01*
X014059Y012645D01*
X014109Y012654D01*
X014158Y012659D01*
X014209Y012660D01*
X014259Y012657D01*
X014308Y012650D01*
X014357Y012639D01*
X014405Y012624D01*
X014451Y012606D01*
X014496Y012584D01*
X014539Y012558D01*
X014580Y012529D01*
X014619Y012497D01*
X014655Y012462D01*
X014687Y012424D01*
X014717Y012384D01*
X014744Y012341D01*
X014767Y012297D01*
X014786Y012251D01*
X014802Y012203D01*
X014814Y012154D01*
X014822Y012105D01*
X014826Y012055D01*
X014826Y012005D01*
X014822Y011955D01*
X014814Y011906D01*
X014802Y011857D01*
X014786Y011809D01*
X014767Y011763D01*
X014744Y011719D01*
X014717Y011676D01*
X014687Y011636D01*
X014655Y011598D01*
X014619Y011563D01*
X014580Y011531D01*
X014539Y011502D01*
X014496Y011476D01*
X014451Y011454D01*
X014405Y011436D01*
X014357Y011421D01*
X014308Y011410D01*
X014259Y011403D01*
X014209Y011400D01*
X014158Y011401D01*
X014109Y011406D01*
X014059Y011415D01*
X014011Y011428D01*
X013964Y011444D01*
X013918Y011465D01*
X013874Y011489D01*
X013832Y011516D01*
X013792Y011546D01*
X013755Y011580D01*
X013721Y011617D01*
X013689Y011656D01*
X013661Y011697D01*
X013636Y011741D01*
X013615Y011786D01*
X013598Y011833D01*
X013584Y011881D01*
X013574Y011930D01*
X013568Y011980D01*
X013566Y012030D01*
X032936Y008960D02*
X032938Y009010D01*
X032944Y009060D01*
X032954Y009109D01*
X032968Y009157D01*
X032985Y009204D01*
X033006Y009249D01*
X033031Y009293D01*
X033059Y009334D01*
X033091Y009373D01*
X033125Y009410D01*
X033162Y009444D01*
X033202Y009474D01*
X033244Y009501D01*
X033288Y009525D01*
X033334Y009546D01*
X033381Y009562D01*
X033429Y009575D01*
X033479Y009584D01*
X033528Y009589D01*
X033579Y009590D01*
X033629Y009587D01*
X033678Y009580D01*
X033727Y009569D01*
X033775Y009554D01*
X033821Y009536D01*
X033866Y009514D01*
X033909Y009488D01*
X033950Y009459D01*
X033989Y009427D01*
X034025Y009392D01*
X034057Y009354D01*
X034087Y009314D01*
X034114Y009271D01*
X034137Y009227D01*
X034156Y009181D01*
X034172Y009133D01*
X034184Y009084D01*
X034192Y009035D01*
X034196Y008985D01*
X034196Y008935D01*
X034192Y008885D01*
X034184Y008836D01*
X034172Y008787D01*
X034156Y008739D01*
X034137Y008693D01*
X034114Y008649D01*
X034087Y008606D01*
X034057Y008566D01*
X034025Y008528D01*
X033989Y008493D01*
X033950Y008461D01*
X033909Y008432D01*
X033866Y008406D01*
X033821Y008384D01*
X033775Y008366D01*
X033727Y008351D01*
X033678Y008340D01*
X033629Y008333D01*
X033579Y008330D01*
X033528Y008331D01*
X033479Y008336D01*
X033429Y008345D01*
X033381Y008358D01*
X033334Y008374D01*
X033288Y008395D01*
X033244Y008419D01*
X033202Y008446D01*
X033162Y008476D01*
X033125Y008510D01*
X033091Y008547D01*
X033059Y008586D01*
X033031Y008627D01*
X033006Y008671D01*
X032985Y008716D01*
X032968Y008763D01*
X032954Y008811D01*
X032944Y008860D01*
X032938Y008910D01*
X032936Y008960D01*
X032936Y015259D02*
X032938Y015309D01*
X032944Y015359D01*
X032954Y015408D01*
X032968Y015456D01*
X032985Y015503D01*
X033006Y015548D01*
X033031Y015592D01*
X033059Y015633D01*
X033091Y015672D01*
X033125Y015709D01*
X033162Y015743D01*
X033202Y015773D01*
X033244Y015800D01*
X033288Y015824D01*
X033334Y015845D01*
X033381Y015861D01*
X033429Y015874D01*
X033479Y015883D01*
X033528Y015888D01*
X033579Y015889D01*
X033629Y015886D01*
X033678Y015879D01*
X033727Y015868D01*
X033775Y015853D01*
X033821Y015835D01*
X033866Y015813D01*
X033909Y015787D01*
X033950Y015758D01*
X033989Y015726D01*
X034025Y015691D01*
X034057Y015653D01*
X034087Y015613D01*
X034114Y015570D01*
X034137Y015526D01*
X034156Y015480D01*
X034172Y015432D01*
X034184Y015383D01*
X034192Y015334D01*
X034196Y015284D01*
X034196Y015234D01*
X034192Y015184D01*
X034184Y015135D01*
X034172Y015086D01*
X034156Y015038D01*
X034137Y014992D01*
X034114Y014948D01*
X034087Y014905D01*
X034057Y014865D01*
X034025Y014827D01*
X033989Y014792D01*
X033950Y014760D01*
X033909Y014731D01*
X033866Y014705D01*
X033821Y014683D01*
X033775Y014665D01*
X033727Y014650D01*
X033678Y014639D01*
X033629Y014632D01*
X033579Y014629D01*
X033528Y014630D01*
X033479Y014635D01*
X033429Y014644D01*
X033381Y014657D01*
X033334Y014673D01*
X033288Y014694D01*
X033244Y014718D01*
X033202Y014745D01*
X033162Y014775D01*
X033125Y014809D01*
X033091Y014846D01*
X033059Y014885D01*
X033031Y014926D01*
X033006Y014970D01*
X032985Y015015D01*
X032968Y015062D01*
X032954Y015110D01*
X032944Y015159D01*
X032938Y015209D01*
X032936Y015259D01*
D11*
X034519Y015214D02*
X034643Y015091D01*
X034889Y015091D01*
X034889Y014969D02*
X034889Y014723D01*
X034643Y014969D01*
X034581Y014969D01*
X034519Y014908D01*
X034519Y014784D01*
X034581Y014723D01*
X034704Y015091D02*
X034704Y015338D01*
X034643Y015338D02*
X034889Y015338D01*
X034643Y015338D02*
X034519Y015214D01*
X034541Y016455D02*
X034480Y016517D01*
X034480Y016640D01*
X034541Y016702D01*
X034603Y016702D01*
X034850Y016455D01*
X034850Y016702D01*
X034850Y016823D02*
X034850Y017008D01*
X034788Y017070D01*
X034727Y017070D01*
X034665Y017008D01*
X034665Y016823D01*
X034850Y016823D02*
X034480Y016823D01*
X034480Y017008D01*
X034541Y017070D01*
X034603Y017070D01*
X034665Y017008D01*
X034643Y013094D02*
X034889Y013094D01*
X034704Y013094D02*
X034704Y012847D01*
X034643Y012847D02*
X034519Y012970D01*
X034643Y013094D01*
X034643Y012847D02*
X034889Y012847D01*
X034889Y012725D02*
X034889Y012478D01*
X034889Y012602D02*
X034519Y012602D01*
X034643Y012478D01*
X034620Y011322D02*
X034682Y011322D01*
X034744Y011260D01*
X034744Y011075D01*
X034929Y011075D02*
X034558Y011075D01*
X034558Y011260D01*
X034620Y011322D01*
X034744Y011260D02*
X034805Y011322D01*
X034867Y011322D01*
X034929Y011260D01*
X034929Y011075D01*
X034929Y010954D02*
X034929Y010707D01*
X034929Y010830D02*
X034558Y010830D01*
X034682Y010707D01*
X034581Y009486D02*
X034519Y009424D01*
X034519Y009239D01*
X034889Y009239D01*
X034889Y009424D01*
X034828Y009486D01*
X034581Y009486D01*
X034581Y009117D02*
X034519Y009056D01*
X034519Y008870D01*
X034889Y008870D01*
X034889Y009056D01*
X034828Y009117D01*
X034581Y009117D01*
X034519Y008749D02*
X034766Y008749D01*
X034889Y008626D01*
X034766Y008502D01*
X034519Y008502D01*
X034581Y007556D02*
X034519Y007495D01*
X034519Y007310D01*
X034889Y007310D01*
X034889Y007495D01*
X034828Y007556D01*
X034581Y007556D01*
X034519Y007188D02*
X034889Y007188D01*
X034519Y006941D01*
X034889Y006941D01*
X034828Y006820D02*
X034704Y006820D01*
X034704Y006696D01*
X034581Y006573D02*
X034828Y006573D01*
X034889Y006635D01*
X034889Y006758D01*
X034828Y006820D01*
X034581Y006820D02*
X034519Y006758D01*
X034519Y006635D01*
X034581Y006573D01*
X031087Y010952D02*
X030963Y010952D01*
X030901Y011014D01*
X030901Y011138D01*
X031087Y011138D01*
X031148Y011076D01*
X031148Y011014D01*
X031087Y010952D01*
X030901Y011138D02*
X031025Y011261D01*
X031148Y011323D01*
X030780Y011261D02*
X030718Y011323D01*
X030595Y011323D01*
X030533Y011261D01*
X030533Y011014D01*
X030595Y010952D01*
X030718Y010952D01*
X030780Y011014D01*
X013669Y011086D02*
X013299Y011086D01*
X013299Y011207D02*
X013299Y011392D01*
X013360Y011454D01*
X013422Y011454D01*
X013484Y011392D01*
X013484Y011207D01*
X013484Y011086D02*
X013484Y010839D01*
X013607Y010717D02*
X013669Y010656D01*
X013669Y010532D01*
X013607Y010471D01*
X013360Y010471D01*
X013299Y010532D01*
X013299Y010656D01*
X013360Y010717D01*
X013299Y010839D02*
X013669Y010839D01*
X013669Y011207D02*
X013299Y011207D01*
X013484Y011392D02*
X013545Y011454D01*
X013607Y011454D01*
X013669Y011392D01*
X013669Y011207D01*
X013607Y012478D02*
X013360Y012478D01*
X013299Y012540D01*
X013299Y012664D01*
X013360Y012725D01*
X013484Y012725D02*
X013484Y012602D01*
X013484Y012725D02*
X013607Y012725D01*
X013669Y012664D01*
X013669Y012540D01*
X013607Y012478D01*
X013669Y012847D02*
X013299Y012847D01*
X013669Y013094D01*
X013299Y013094D01*
X013299Y013215D02*
X013299Y013400D01*
X013360Y013462D01*
X013607Y013462D01*
X013669Y013400D01*
X013669Y013215D01*
X013299Y013215D01*
X013259Y014408D02*
X013259Y014593D01*
X013321Y014654D01*
X013568Y014654D01*
X013630Y014593D01*
X013630Y014408D01*
X013259Y014408D01*
X013259Y014776D02*
X013259Y014899D01*
X013259Y014838D02*
X013630Y014838D01*
X013630Y014899D02*
X013630Y014776D01*
X013630Y015021D02*
X013259Y015021D01*
X013259Y015207D01*
X013321Y015268D01*
X013444Y015268D01*
X013506Y015207D01*
X013506Y015021D01*
X013506Y015145D02*
X013630Y015268D01*
X013607Y016297D02*
X013669Y016359D01*
X013669Y016483D01*
X013607Y016544D01*
X013545Y016544D01*
X013484Y016483D01*
X013484Y016359D01*
X013422Y016297D01*
X013360Y016297D01*
X013299Y016359D01*
X013299Y016483D01*
X013360Y016544D01*
X013299Y016666D02*
X013299Y016913D01*
X013299Y017034D02*
X013669Y017034D01*
X013669Y017281D01*
X013669Y017402D02*
X013299Y017402D01*
X013299Y017587D01*
X013360Y017649D01*
X013484Y017649D01*
X013545Y017587D01*
X013545Y017402D01*
X013484Y017157D02*
X013484Y017034D01*
X013299Y017034D02*
X013299Y017281D01*
X013299Y016789D02*
X013669Y016789D01*
X013590Y009131D02*
X013343Y009131D01*
X013220Y009008D01*
X013343Y008884D01*
X013590Y008884D01*
X013590Y008763D02*
X013220Y008763D01*
X013405Y008763D02*
X013405Y008516D01*
X013282Y008395D02*
X013220Y008333D01*
X013220Y008209D01*
X013282Y008148D01*
X013528Y008148D01*
X013590Y008209D01*
X013590Y008333D01*
X013528Y008395D01*
X013590Y008516D02*
X013220Y008516D01*
X013405Y008884D02*
X013405Y009131D01*
X013321Y007478D02*
X013259Y007416D01*
X013259Y007293D01*
X013321Y007231D01*
X013568Y007231D01*
X013630Y007293D01*
X013630Y007416D01*
X013568Y007478D01*
X013568Y007109D02*
X013630Y007048D01*
X013630Y006924D01*
X013568Y006863D01*
X013321Y006863D01*
X013259Y006924D01*
X013259Y007048D01*
X013321Y007109D01*
X013259Y006741D02*
X013506Y006741D01*
X013630Y006618D01*
X013506Y006494D01*
X013259Y006494D01*
D12*
X022552Y006523D02*
X022662Y006523D01*
X022699Y006560D01*
X022699Y006633D01*
X022662Y006670D01*
X022552Y006670D01*
X022552Y006450D01*
X022773Y006487D02*
X022773Y006560D01*
X022810Y006597D01*
X022883Y006597D01*
X022920Y006560D01*
X022920Y006487D01*
X022883Y006450D01*
X022810Y006450D01*
X022773Y006487D01*
X022994Y006487D02*
X023031Y006450D01*
X023068Y006487D01*
X023104Y006450D01*
X023141Y006487D01*
X023141Y006597D01*
X023215Y006560D02*
X023215Y006487D01*
X023252Y006450D01*
X023325Y006450D01*
X023362Y006523D02*
X023215Y006523D01*
X023215Y006560D02*
X023252Y006597D01*
X023325Y006597D01*
X023362Y006560D01*
X023362Y006523D01*
X023436Y006523D02*
X023510Y006597D01*
X023546Y006597D01*
X023436Y006597D02*
X023436Y006450D01*
X022994Y006487D02*
X022994Y006597D01*
X023182Y008241D02*
X023292Y008241D01*
X023329Y008278D01*
X023329Y008425D01*
X023292Y008461D01*
X023182Y008461D01*
X023182Y008241D01*
X023403Y008241D02*
X023477Y008241D01*
X023440Y008241D02*
X023440Y008461D01*
X023403Y008461D02*
X023477Y008461D01*
X023550Y008461D02*
X023661Y008461D01*
X023697Y008425D01*
X023697Y008351D01*
X023661Y008315D01*
X023550Y008315D01*
X023550Y008241D02*
X023550Y008461D01*
X023624Y008315D02*
X023697Y008241D01*
X023624Y009241D02*
X023771Y009241D01*
X023845Y009241D02*
X023845Y009461D01*
X023955Y009461D01*
X023992Y009425D01*
X023992Y009351D01*
X023955Y009315D01*
X023845Y009315D01*
X023697Y009351D02*
X023624Y009351D01*
X023624Y009461D02*
X023624Y009241D01*
X023477Y009241D02*
X023477Y009461D01*
X023550Y009461D02*
X023403Y009461D01*
X023329Y009425D02*
X023292Y009461D01*
X023219Y009461D01*
X023182Y009425D01*
X023182Y009388D01*
X023219Y009351D01*
X023292Y009351D01*
X023329Y009315D01*
X023329Y009278D01*
X023292Y009241D01*
X023219Y009241D01*
X023182Y009278D01*
X023624Y009461D02*
X023771Y009461D01*
X023624Y010241D02*
X023624Y010461D01*
X023734Y010461D01*
X023771Y010425D01*
X023771Y010351D01*
X023734Y010315D01*
X023624Y010315D01*
X023550Y010241D02*
X023403Y010241D01*
X023403Y010461D01*
X023329Y010425D02*
X023292Y010461D01*
X023219Y010461D01*
X023182Y010425D01*
X023182Y010388D01*
X023219Y010351D01*
X023292Y010351D01*
X023329Y010315D01*
X023329Y010278D01*
X023292Y010241D01*
X023219Y010241D01*
X023182Y010278D01*
X023182Y011241D02*
X023182Y011461D01*
X023292Y011461D01*
X023329Y011425D01*
X023329Y011351D01*
X023292Y011315D01*
X023182Y011315D01*
X023256Y011315D02*
X023329Y011241D01*
X023403Y011278D02*
X023440Y011241D01*
X023513Y011241D01*
X023550Y011278D01*
X023550Y011315D01*
X023513Y011351D01*
X023440Y011351D01*
X023403Y011388D01*
X023403Y011425D01*
X023440Y011461D01*
X023513Y011461D01*
X023550Y011425D01*
X023624Y011461D02*
X023771Y011461D01*
X023697Y011461D02*
X023697Y011241D01*
X023661Y012241D02*
X023624Y012278D01*
X023661Y012241D02*
X023734Y012241D01*
X023771Y012278D01*
X023771Y012315D01*
X023734Y012351D01*
X023697Y012351D01*
X023734Y012351D02*
X023771Y012388D01*
X023771Y012425D01*
X023734Y012461D01*
X023661Y012461D01*
X023624Y012425D01*
X023550Y012425D02*
X023513Y012461D01*
X023440Y012461D01*
X023403Y012425D01*
X023403Y012388D01*
X023440Y012351D01*
X023513Y012351D01*
X023550Y012315D01*
X023550Y012278D01*
X023513Y012241D01*
X023440Y012241D01*
X023403Y012278D01*
X023329Y012241D02*
X023329Y012461D01*
X023256Y012388D01*
X023182Y012461D01*
X023182Y012241D01*
X023182Y013241D02*
X023182Y013461D01*
X023256Y013388D01*
X023329Y013461D01*
X023329Y013241D01*
X023403Y013278D02*
X023440Y013241D01*
X023513Y013241D01*
X023550Y013278D01*
X023550Y013315D01*
X023513Y013351D01*
X023440Y013351D01*
X023403Y013388D01*
X023403Y013425D01*
X023440Y013461D01*
X023513Y013461D01*
X023550Y013425D01*
X023624Y013425D02*
X023661Y013461D01*
X023734Y013461D01*
X023771Y013425D01*
X023771Y013388D01*
X023624Y013241D01*
X023771Y013241D01*
X023771Y014241D02*
X023624Y014241D01*
X023697Y014241D02*
X023697Y014461D01*
X023624Y014388D01*
X023550Y014425D02*
X023513Y014461D01*
X023440Y014461D01*
X023403Y014425D01*
X023403Y014388D01*
X023440Y014351D01*
X023513Y014351D01*
X023550Y014315D01*
X023550Y014278D01*
X023513Y014241D01*
X023440Y014241D01*
X023403Y014278D01*
X023329Y014241D02*
X023329Y014461D01*
X023256Y014388D01*
X023182Y014461D01*
X023182Y014241D01*
X023182Y015241D02*
X023329Y015241D01*
X023403Y015241D02*
X023403Y015461D01*
X023550Y015241D01*
X023550Y015461D01*
X023329Y015461D02*
X023182Y015461D01*
X023182Y015241D01*
X023182Y015351D02*
X023256Y015351D01*
X026372Y015575D02*
X026445Y015501D01*
X026519Y015575D01*
X026519Y015721D01*
X026593Y015648D02*
X026630Y015648D01*
X026666Y015611D01*
X026703Y015648D01*
X026740Y015611D01*
X026740Y015501D01*
X026666Y015501D02*
X026666Y015611D01*
X026593Y015648D02*
X026593Y015501D01*
X026814Y015538D02*
X026851Y015501D01*
X026924Y015501D01*
X026961Y015538D01*
X026961Y015611D01*
X026924Y015648D01*
X026851Y015648D01*
X026814Y015611D01*
X026814Y015538D01*
X027035Y015648D02*
X027108Y015648D01*
X027071Y015685D02*
X027071Y015538D01*
X027108Y015501D01*
X026372Y015575D02*
X026372Y015721D01*
X026556Y014721D02*
X026519Y014685D01*
X026519Y014538D01*
X026556Y014501D01*
X026629Y014501D01*
X026666Y014538D01*
X026666Y014611D01*
X026593Y014611D01*
X026666Y014685D02*
X026629Y014721D01*
X026556Y014721D01*
X026740Y014721D02*
X026887Y014501D01*
X026887Y014721D01*
X026961Y014721D02*
X027071Y014721D01*
X027108Y014685D01*
X027108Y014538D01*
X027071Y014501D01*
X026961Y014501D01*
X026961Y014721D01*
X026740Y014721D02*
X026740Y014501D01*
X026777Y013721D02*
X026740Y013685D01*
X026777Y013721D02*
X026850Y013721D01*
X026887Y013685D01*
X026887Y013648D01*
X026740Y013501D01*
X026887Y013501D01*
X026961Y013501D02*
X027071Y013501D01*
X027108Y013538D01*
X027108Y013575D01*
X027071Y013611D01*
X026961Y013611D01*
X026961Y013501D02*
X026961Y013721D01*
X027071Y013721D01*
X027108Y013685D01*
X027108Y013648D01*
X027071Y013611D01*
X027035Y012721D02*
X027108Y012648D01*
X027108Y012501D01*
X027108Y012611D02*
X026961Y012611D01*
X026961Y012648D02*
X027035Y012721D01*
X026961Y012648D02*
X026961Y012501D01*
X026887Y012501D02*
X026740Y012501D01*
X026887Y012648D01*
X026887Y012685D01*
X026850Y012721D01*
X026777Y012721D01*
X026740Y012685D01*
X026814Y011721D02*
X026814Y011501D01*
X026887Y011501D02*
X026740Y011501D01*
X026740Y011648D02*
X026814Y011721D01*
X026961Y011648D02*
X027035Y011721D01*
X027108Y011648D01*
X027108Y011501D01*
X027108Y011611D02*
X026961Y011611D01*
X026961Y011648D02*
X026961Y011501D01*
X026961Y010721D02*
X027071Y010721D01*
X027108Y010685D01*
X027108Y010648D01*
X027071Y010611D01*
X026961Y010611D01*
X026961Y010501D02*
X027071Y010501D01*
X027108Y010538D01*
X027108Y010575D01*
X027071Y010611D01*
X026961Y010501D02*
X026961Y010721D01*
X026814Y010721D02*
X026814Y010501D01*
X026887Y010501D02*
X026740Y010501D01*
X026740Y010648D02*
X026814Y010721D01*
X026850Y009721D02*
X026740Y009721D01*
X026740Y009501D01*
X026850Y009501D01*
X026887Y009538D01*
X026887Y009685D01*
X026850Y009721D01*
X026961Y009721D02*
X026961Y009501D01*
X027071Y009501D01*
X027108Y009538D01*
X027108Y009685D01*
X027071Y009721D01*
X026961Y009721D01*
X026666Y009721D02*
X026666Y009575D01*
X026593Y009501D01*
X026519Y009575D01*
X026519Y009721D01*
X026556Y008721D02*
X026519Y008685D01*
X026519Y008538D01*
X026556Y008501D01*
X026629Y008501D01*
X026666Y008538D01*
X026666Y008611D01*
X026593Y008611D01*
X026666Y008685D02*
X026629Y008721D01*
X026556Y008721D01*
X026740Y008721D02*
X026887Y008501D01*
X026887Y008721D01*
X026961Y008721D02*
X027071Y008721D01*
X027108Y008685D01*
X027108Y008538D01*
X027071Y008501D01*
X026961Y008501D01*
X026961Y008721D01*
X026740Y008721D02*
X026740Y008501D01*
X020821Y017670D02*
X020747Y017670D01*
X020711Y017707D01*
X020637Y017707D02*
X020600Y017670D01*
X020526Y017670D01*
X020490Y017707D01*
X020526Y017780D02*
X020600Y017780D01*
X020637Y017744D01*
X020637Y017707D01*
X020526Y017780D02*
X020490Y017817D01*
X020490Y017854D01*
X020526Y017891D01*
X020600Y017891D01*
X020637Y017854D01*
X020711Y017854D02*
X020747Y017891D01*
X020821Y017891D01*
X020858Y017854D01*
X020858Y017817D01*
X020821Y017780D01*
X020858Y017744D01*
X020858Y017707D01*
X020821Y017670D01*
X020821Y017780D02*
X020784Y017780D01*
X020416Y017891D02*
X020416Y017670D01*
X020269Y017670D02*
X020269Y017891D01*
X020342Y017817D01*
X020416Y017891D01*
X019834Y017893D02*
X019797Y017930D01*
X019724Y017930D01*
X019687Y017893D01*
X019613Y017893D02*
X019576Y017930D01*
X019503Y017930D01*
X019466Y017893D01*
X019466Y017856D01*
X019503Y017820D01*
X019576Y017820D01*
X019613Y017783D01*
X019613Y017746D01*
X019576Y017710D01*
X019503Y017710D01*
X019466Y017746D01*
X019392Y017710D02*
X019392Y017930D01*
X019319Y017856D01*
X019245Y017930D01*
X019245Y017710D01*
X018850Y017710D02*
X018703Y017710D01*
X018776Y017710D02*
X018776Y017930D01*
X018703Y017856D01*
X018629Y017893D02*
X018592Y017930D01*
X018519Y017930D01*
X018482Y017893D01*
X018482Y017856D01*
X018519Y017820D01*
X018592Y017820D01*
X018629Y017783D01*
X018629Y017746D01*
X018592Y017710D01*
X018519Y017710D01*
X018482Y017746D01*
X018408Y017710D02*
X018408Y017930D01*
X018334Y017856D01*
X018261Y017930D01*
X018261Y017710D01*
X019687Y017710D02*
X019834Y017856D01*
X019834Y017893D01*
X019834Y017710D02*
X019687Y017710D01*
D13*
X019792Y017513D02*
X019292Y017513D01*
X019042Y017263D01*
X019042Y015763D01*
X019292Y015513D01*
X019792Y015513D01*
X020042Y015763D01*
X020292Y015513D01*
X020792Y015513D01*
X021042Y015763D01*
X021042Y017263D01*
X020792Y017513D01*
X020292Y017513D01*
X020042Y017263D01*
X020042Y015763D01*
X019042Y015763D02*
X018792Y015513D01*
X018292Y015513D01*
X018042Y015763D01*
X018042Y017263D01*
X018292Y017513D01*
X018792Y017513D01*
X019042Y017263D01*
X019792Y017513D02*
X020042Y017263D01*
X022160Y016967D02*
X022397Y016967D01*
X022397Y016495D02*
X022160Y016495D01*
X022322Y015931D02*
X022322Y008031D01*
X028022Y008031D01*
X028022Y015931D01*
X025672Y015931D01*
X025670Y015887D01*
X025664Y015844D01*
X025655Y015802D01*
X025642Y015760D01*
X025625Y015720D01*
X025605Y015681D01*
X025582Y015644D01*
X025555Y015610D01*
X025526Y015577D01*
X025493Y015548D01*
X025459Y015521D01*
X025422Y015498D01*
X025383Y015478D01*
X025343Y015461D01*
X025301Y015448D01*
X025259Y015439D01*
X025216Y015433D01*
X025172Y015431D01*
X025128Y015433D01*
X025085Y015439D01*
X025043Y015448D01*
X025001Y015461D01*
X024961Y015478D01*
X024922Y015498D01*
X024885Y015521D01*
X024851Y015548D01*
X024818Y015577D01*
X024789Y015610D01*
X024762Y015644D01*
X024739Y015681D01*
X024719Y015720D01*
X024702Y015760D01*
X024689Y015802D01*
X024680Y015844D01*
X024674Y015887D01*
X024672Y015931D01*
X022322Y015931D01*
X020217Y014399D02*
X017597Y014399D01*
X017458Y014259D01*
X017458Y011639D01*
X020217Y011639D01*
X020217Y014399D01*
X021180Y013345D02*
X021180Y013109D01*
X021652Y013109D02*
X021652Y013345D01*
X021660Y011853D02*
X021660Y011617D01*
X021188Y011617D02*
X021188Y011853D01*
X018743Y010649D02*
X018507Y010649D01*
X018507Y010176D02*
X018743Y010176D01*
X018743Y009649D02*
X018507Y009649D01*
X018507Y009176D02*
X018743Y009176D01*
X014956Y009026D02*
X014719Y009026D01*
X014719Y008617D02*
X014956Y008617D01*
X014956Y008145D02*
X014719Y008145D01*
X014696Y007711D02*
X014932Y007711D01*
X014932Y007239D02*
X014696Y007239D01*
X012228Y007386D02*
X012228Y008656D01*
X012228Y009356D02*
X012228Y010626D01*
X012228Y011326D02*
X012228Y011956D01*
X012228Y012595D01*
X012228Y011956D02*
X009508Y011956D01*
X009508Y006056D01*
X012228Y006056D01*
X012228Y006686D01*
X012228Y006056D02*
X013128Y006056D01*
X013128Y017865D01*
X012228Y017865D01*
X012228Y017236D01*
X012228Y017865D02*
X009508Y017865D01*
X009508Y011956D01*
X009908Y012946D02*
X009910Y012974D01*
X009916Y013001D01*
X009925Y013027D01*
X009938Y013052D01*
X009955Y013075D01*
X009974Y013095D01*
X009996Y013112D01*
X010020Y013126D01*
X010046Y013136D01*
X010073Y013143D01*
X010101Y013146D01*
X010129Y013145D01*
X010156Y013140D01*
X010183Y013131D01*
X010208Y013119D01*
X010231Y013104D01*
X010252Y013085D01*
X010270Y013064D01*
X010285Y013040D01*
X010296Y013014D01*
X010304Y012988D01*
X010308Y012960D01*
X010308Y012932D01*
X010304Y012904D01*
X010296Y012878D01*
X010285Y012852D01*
X010270Y012828D01*
X010252Y012807D01*
X010231Y012788D01*
X010208Y012773D01*
X010183Y012761D01*
X010156Y012752D01*
X010129Y012747D01*
X010101Y012746D01*
X010073Y012749D01*
X010046Y012756D01*
X010020Y012766D01*
X009996Y012780D01*
X009974Y012797D01*
X009955Y012817D01*
X009938Y012840D01*
X009925Y012865D01*
X009916Y012891D01*
X009910Y012918D01*
X009908Y012946D01*
X012228Y013295D02*
X012228Y014565D01*
X012228Y015265D02*
X012228Y016536D01*
X009908Y016876D02*
X009910Y016904D01*
X009916Y016931D01*
X009925Y016957D01*
X009938Y016982D01*
X009955Y017005D01*
X009974Y017025D01*
X009996Y017042D01*
X010020Y017056D01*
X010046Y017066D01*
X010073Y017073D01*
X010101Y017076D01*
X010129Y017075D01*
X010156Y017070D01*
X010183Y017061D01*
X010208Y017049D01*
X010231Y017034D01*
X010252Y017015D01*
X010270Y016994D01*
X010285Y016970D01*
X010296Y016944D01*
X010304Y016918D01*
X010308Y016890D01*
X010308Y016862D01*
X010304Y016834D01*
X010296Y016808D01*
X010285Y016782D01*
X010270Y016758D01*
X010252Y016737D01*
X010231Y016718D01*
X010208Y016703D01*
X010183Y016691D01*
X010156Y016682D01*
X010129Y016677D01*
X010101Y016676D01*
X010073Y016679D01*
X010046Y016686D01*
X010020Y016696D01*
X009996Y016710D01*
X009974Y016727D01*
X009955Y016747D01*
X009938Y016770D01*
X009925Y016795D01*
X009916Y016821D01*
X009910Y016848D01*
X009908Y016876D01*
X009908Y014906D02*
X009910Y014934D01*
X009916Y014961D01*
X009925Y014987D01*
X009938Y015012D01*
X009955Y015035D01*
X009974Y015055D01*
X009996Y015072D01*
X010020Y015086D01*
X010046Y015096D01*
X010073Y015103D01*
X010101Y015106D01*
X010129Y015105D01*
X010156Y015100D01*
X010183Y015091D01*
X010208Y015079D01*
X010231Y015064D01*
X010252Y015045D01*
X010270Y015024D01*
X010285Y015000D01*
X010296Y014974D01*
X010304Y014948D01*
X010308Y014920D01*
X010308Y014892D01*
X010304Y014864D01*
X010296Y014838D01*
X010285Y014812D01*
X010270Y014788D01*
X010252Y014767D01*
X010231Y014748D01*
X010208Y014733D01*
X010183Y014721D01*
X010156Y014712D01*
X010129Y014707D01*
X010101Y014706D01*
X010073Y014709D01*
X010046Y014716D01*
X010020Y014726D01*
X009996Y014740D01*
X009974Y014757D01*
X009955Y014777D01*
X009938Y014800D01*
X009925Y014825D01*
X009916Y014851D01*
X009910Y014878D01*
X009908Y014906D01*
X014719Y015058D02*
X014956Y015058D01*
X014956Y015530D02*
X014719Y015530D01*
X014719Y014530D02*
X014956Y014530D01*
X014956Y014058D02*
X014719Y014058D01*
X017616Y014099D02*
X017618Y014122D01*
X017624Y014145D01*
X017633Y014166D01*
X017646Y014186D01*
X017662Y014203D01*
X017680Y014217D01*
X017700Y014228D01*
X017722Y014236D01*
X017745Y014240D01*
X017769Y014240D01*
X017792Y014236D01*
X017814Y014228D01*
X017834Y014217D01*
X017852Y014203D01*
X017868Y014186D01*
X017881Y014166D01*
X017890Y014145D01*
X017896Y014122D01*
X017898Y014099D01*
X017896Y014076D01*
X017890Y014053D01*
X017881Y014032D01*
X017868Y014012D01*
X017852Y013995D01*
X017834Y013981D01*
X017814Y013970D01*
X017792Y013962D01*
X017769Y013958D01*
X017745Y013958D01*
X017722Y013962D01*
X017700Y013970D01*
X017680Y013981D01*
X017662Y013995D01*
X017646Y014012D01*
X017633Y014032D01*
X017624Y014053D01*
X017618Y014076D01*
X017616Y014099D01*
X014956Y010499D02*
X014719Y010499D01*
X014719Y010026D02*
X014956Y010026D01*
X014956Y009499D02*
X014719Y009499D01*
X009908Y009006D02*
X009910Y009034D01*
X009916Y009061D01*
X009925Y009087D01*
X009938Y009112D01*
X009955Y009135D01*
X009974Y009155D01*
X009996Y009172D01*
X010020Y009186D01*
X010046Y009196D01*
X010073Y009203D01*
X010101Y009206D01*
X010129Y009205D01*
X010156Y009200D01*
X010183Y009191D01*
X010208Y009179D01*
X010231Y009164D01*
X010252Y009145D01*
X010270Y009124D01*
X010285Y009100D01*
X010296Y009074D01*
X010304Y009048D01*
X010308Y009020D01*
X010308Y008992D01*
X010304Y008964D01*
X010296Y008938D01*
X010285Y008912D01*
X010270Y008888D01*
X010252Y008867D01*
X010231Y008848D01*
X010208Y008833D01*
X010183Y008821D01*
X010156Y008812D01*
X010129Y008807D01*
X010101Y008806D01*
X010073Y008809D01*
X010046Y008816D01*
X010020Y008826D01*
X009996Y008840D01*
X009974Y008857D01*
X009955Y008877D01*
X009938Y008900D01*
X009925Y008925D01*
X009916Y008951D01*
X009910Y008978D01*
X009908Y009006D01*
X009908Y010976D02*
X009910Y011004D01*
X009916Y011031D01*
X009925Y011057D01*
X009938Y011082D01*
X009955Y011105D01*
X009974Y011125D01*
X009996Y011142D01*
X010020Y011156D01*
X010046Y011166D01*
X010073Y011173D01*
X010101Y011176D01*
X010129Y011175D01*
X010156Y011170D01*
X010183Y011161D01*
X010208Y011149D01*
X010231Y011134D01*
X010252Y011115D01*
X010270Y011094D01*
X010285Y011070D01*
X010296Y011044D01*
X010304Y011018D01*
X010308Y010990D01*
X010308Y010962D01*
X010304Y010934D01*
X010296Y010908D01*
X010285Y010882D01*
X010270Y010858D01*
X010252Y010837D01*
X010231Y010818D01*
X010208Y010803D01*
X010183Y010791D01*
X010156Y010782D01*
X010129Y010777D01*
X010101Y010776D01*
X010073Y010779D01*
X010046Y010786D01*
X010020Y010796D01*
X009996Y010810D01*
X009974Y010827D01*
X009955Y010847D01*
X009938Y010870D01*
X009925Y010895D01*
X009916Y010921D01*
X009910Y010948D01*
X009908Y010976D01*
X009908Y007036D02*
X009910Y007064D01*
X009916Y007091D01*
X009925Y007117D01*
X009938Y007142D01*
X009955Y007165D01*
X009974Y007185D01*
X009996Y007202D01*
X010020Y007216D01*
X010046Y007226D01*
X010073Y007233D01*
X010101Y007236D01*
X010129Y007235D01*
X010156Y007230D01*
X010183Y007221D01*
X010208Y007209D01*
X010231Y007194D01*
X010252Y007175D01*
X010270Y007154D01*
X010285Y007130D01*
X010296Y007104D01*
X010304Y007078D01*
X010308Y007050D01*
X010308Y007022D01*
X010304Y006994D01*
X010296Y006968D01*
X010285Y006942D01*
X010270Y006918D01*
X010252Y006897D01*
X010231Y006878D01*
X010208Y006863D01*
X010183Y006851D01*
X010156Y006842D01*
X010129Y006837D01*
X010101Y006836D01*
X010073Y006839D01*
X010046Y006846D01*
X010020Y006856D01*
X009996Y006870D01*
X009974Y006887D01*
X009955Y006907D01*
X009938Y006930D01*
X009925Y006955D01*
X009916Y006981D01*
X009910Y007008D01*
X009908Y007036D01*
X024554Y007020D02*
X024790Y007020D01*
X024790Y007492D02*
X024554Y007492D01*
X025979Y007492D02*
X026215Y007492D01*
X026215Y007020D02*
X025979Y007020D01*
X027379Y007020D02*
X027615Y007020D01*
X027615Y007492D02*
X027379Y007492D01*
X035104Y006102D02*
X036004Y006102D01*
X036004Y006732D01*
X036004Y006102D02*
X038724Y006102D01*
X038724Y012012D01*
X038724Y017912D01*
X036004Y017912D01*
X036004Y017282D01*
X036004Y017912D02*
X035104Y017912D01*
X035104Y006102D01*
X036004Y007432D02*
X036004Y008702D01*
X036004Y009402D02*
X036004Y010672D01*
X036004Y011372D02*
X036004Y012012D01*
X038724Y012012D01*
X037924Y012992D02*
X037926Y013020D01*
X037932Y013047D01*
X037941Y013073D01*
X037954Y013098D01*
X037971Y013121D01*
X037990Y013141D01*
X038012Y013158D01*
X038036Y013172D01*
X038062Y013182D01*
X038089Y013189D01*
X038117Y013192D01*
X038145Y013191D01*
X038172Y013186D01*
X038199Y013177D01*
X038224Y013165D01*
X038247Y013150D01*
X038268Y013131D01*
X038286Y013110D01*
X038301Y013086D01*
X038312Y013060D01*
X038320Y013034D01*
X038324Y013006D01*
X038324Y012978D01*
X038320Y012950D01*
X038312Y012924D01*
X038301Y012898D01*
X038286Y012874D01*
X038268Y012853D01*
X038247Y012834D01*
X038224Y012819D01*
X038199Y012807D01*
X038172Y012798D01*
X038145Y012793D01*
X038117Y012792D01*
X038089Y012795D01*
X038062Y012802D01*
X038036Y012812D01*
X038012Y012826D01*
X037990Y012843D01*
X037971Y012863D01*
X037954Y012886D01*
X037941Y012911D01*
X037932Y012937D01*
X037926Y012964D01*
X037924Y012992D01*
X036004Y013342D02*
X036004Y014612D01*
X036004Y015312D02*
X036004Y016582D01*
X037924Y016932D02*
X037926Y016960D01*
X037932Y016987D01*
X037941Y017013D01*
X037954Y017038D01*
X037971Y017061D01*
X037990Y017081D01*
X038012Y017098D01*
X038036Y017112D01*
X038062Y017122D01*
X038089Y017129D01*
X038117Y017132D01*
X038145Y017131D01*
X038172Y017126D01*
X038199Y017117D01*
X038224Y017105D01*
X038247Y017090D01*
X038268Y017071D01*
X038286Y017050D01*
X038301Y017026D01*
X038312Y017000D01*
X038320Y016974D01*
X038324Y016946D01*
X038324Y016918D01*
X038320Y016890D01*
X038312Y016864D01*
X038301Y016838D01*
X038286Y016814D01*
X038268Y016793D01*
X038247Y016774D01*
X038224Y016759D01*
X038199Y016747D01*
X038172Y016738D01*
X038145Y016733D01*
X038117Y016732D01*
X038089Y016735D01*
X038062Y016742D01*
X038036Y016752D01*
X038012Y016766D01*
X037990Y016783D01*
X037971Y016803D01*
X037954Y016826D01*
X037941Y016851D01*
X037932Y016877D01*
X037926Y016904D01*
X037924Y016932D01*
X037924Y014962D02*
X037926Y014990D01*
X037932Y015017D01*
X037941Y015043D01*
X037954Y015068D01*
X037971Y015091D01*
X037990Y015111D01*
X038012Y015128D01*
X038036Y015142D01*
X038062Y015152D01*
X038089Y015159D01*
X038117Y015162D01*
X038145Y015161D01*
X038172Y015156D01*
X038199Y015147D01*
X038224Y015135D01*
X038247Y015120D01*
X038268Y015101D01*
X038286Y015080D01*
X038301Y015056D01*
X038312Y015030D01*
X038320Y015004D01*
X038324Y014976D01*
X038324Y014948D01*
X038320Y014920D01*
X038312Y014894D01*
X038301Y014868D01*
X038286Y014844D01*
X038268Y014823D01*
X038247Y014804D01*
X038224Y014789D01*
X038199Y014777D01*
X038172Y014768D01*
X038145Y014763D01*
X038117Y014762D01*
X038089Y014765D01*
X038062Y014772D01*
X038036Y014782D01*
X038012Y014796D01*
X037990Y014813D01*
X037971Y014833D01*
X037954Y014856D01*
X037941Y014881D01*
X037932Y014907D01*
X037926Y014934D01*
X037924Y014962D01*
X036004Y012642D02*
X036004Y012012D01*
X037924Y011022D02*
X037926Y011050D01*
X037932Y011077D01*
X037941Y011103D01*
X037954Y011128D01*
X037971Y011151D01*
X037990Y011171D01*
X038012Y011188D01*
X038036Y011202D01*
X038062Y011212D01*
X038089Y011219D01*
X038117Y011222D01*
X038145Y011221D01*
X038172Y011216D01*
X038199Y011207D01*
X038224Y011195D01*
X038247Y011180D01*
X038268Y011161D01*
X038286Y011140D01*
X038301Y011116D01*
X038312Y011090D01*
X038320Y011064D01*
X038324Y011036D01*
X038324Y011008D01*
X038320Y010980D01*
X038312Y010954D01*
X038301Y010928D01*
X038286Y010904D01*
X038268Y010883D01*
X038247Y010864D01*
X038224Y010849D01*
X038199Y010837D01*
X038172Y010828D01*
X038145Y010823D01*
X038117Y010822D01*
X038089Y010825D01*
X038062Y010832D01*
X038036Y010842D01*
X038012Y010856D01*
X037990Y010873D01*
X037971Y010893D01*
X037954Y010916D01*
X037941Y010941D01*
X037932Y010967D01*
X037926Y010994D01*
X037924Y011022D01*
X037924Y009062D02*
X037926Y009090D01*
X037932Y009117D01*
X037941Y009143D01*
X037954Y009168D01*
X037971Y009191D01*
X037990Y009211D01*
X038012Y009228D01*
X038036Y009242D01*
X038062Y009252D01*
X038089Y009259D01*
X038117Y009262D01*
X038145Y009261D01*
X038172Y009256D01*
X038199Y009247D01*
X038224Y009235D01*
X038247Y009220D01*
X038268Y009201D01*
X038286Y009180D01*
X038301Y009156D01*
X038312Y009130D01*
X038320Y009104D01*
X038324Y009076D01*
X038324Y009048D01*
X038320Y009020D01*
X038312Y008994D01*
X038301Y008968D01*
X038286Y008944D01*
X038268Y008923D01*
X038247Y008904D01*
X038224Y008889D01*
X038199Y008877D01*
X038172Y008868D01*
X038145Y008863D01*
X038117Y008862D01*
X038089Y008865D01*
X038062Y008872D01*
X038036Y008882D01*
X038012Y008896D01*
X037990Y008913D01*
X037971Y008933D01*
X037954Y008956D01*
X037941Y008981D01*
X037932Y009007D01*
X037926Y009034D01*
X037924Y009062D01*
X037924Y007092D02*
X037926Y007120D01*
X037932Y007147D01*
X037941Y007173D01*
X037954Y007198D01*
X037971Y007221D01*
X037990Y007241D01*
X038012Y007258D01*
X038036Y007272D01*
X038062Y007282D01*
X038089Y007289D01*
X038117Y007292D01*
X038145Y007291D01*
X038172Y007286D01*
X038199Y007277D01*
X038224Y007265D01*
X038247Y007250D01*
X038268Y007231D01*
X038286Y007210D01*
X038301Y007186D01*
X038312Y007160D01*
X038320Y007134D01*
X038324Y007106D01*
X038324Y007078D01*
X038320Y007050D01*
X038312Y007024D01*
X038301Y006998D01*
X038286Y006974D01*
X038268Y006953D01*
X038247Y006934D01*
X038224Y006919D01*
X038199Y006907D01*
X038172Y006898D01*
X038145Y006893D01*
X038117Y006892D01*
X038089Y006895D01*
X038062Y006902D01*
X038036Y006912D01*
X038012Y006926D01*
X037990Y006943D01*
X037971Y006963D01*
X037954Y006986D01*
X037941Y007011D01*
X037932Y007037D01*
X037926Y007064D01*
X037924Y007092D01*
D14*
X032496Y008168D02*
X032496Y008218D01*
X032496Y008193D02*
X032346Y008193D01*
X032346Y008168D02*
X032346Y008218D01*
X032371Y008267D02*
X032471Y008267D01*
X032496Y008292D01*
X032496Y008342D01*
X032471Y008367D01*
X032471Y008414D02*
X032496Y008439D01*
X032496Y008489D01*
X032471Y008514D01*
X032446Y008514D01*
X032421Y008489D01*
X032421Y008464D01*
X032421Y008489D02*
X032396Y008514D01*
X032371Y008514D01*
X032346Y008489D01*
X032346Y008439D01*
X032371Y008414D01*
X032371Y008367D02*
X032346Y008342D01*
X032346Y008292D01*
X032371Y008267D01*
X027597Y007736D02*
X027497Y007736D01*
X027497Y007661D01*
X027547Y007686D01*
X027572Y007686D01*
X027597Y007661D01*
X027597Y007611D01*
X027572Y007586D01*
X027522Y007586D01*
X027497Y007611D01*
X027450Y007586D02*
X027349Y007586D01*
X027302Y007586D02*
X027252Y007636D01*
X027277Y007636D02*
X027202Y007636D01*
X027202Y007586D02*
X027202Y007736D01*
X027277Y007736D01*
X027302Y007711D01*
X027302Y007661D01*
X027277Y007636D01*
X027349Y007686D02*
X027399Y007736D01*
X027399Y007586D01*
X026197Y007661D02*
X026097Y007661D01*
X026172Y007736D01*
X026172Y007586D01*
X026050Y007586D02*
X025949Y007586D01*
X025902Y007586D02*
X025852Y007636D01*
X025877Y007636D02*
X025802Y007636D01*
X025802Y007586D02*
X025802Y007736D01*
X025877Y007736D01*
X025902Y007711D01*
X025902Y007661D01*
X025877Y007636D01*
X025949Y007686D02*
X025999Y007736D01*
X025999Y007586D01*
X024625Y007611D02*
X024600Y007586D01*
X024549Y007586D01*
X024524Y007611D01*
X024524Y007661D02*
X024574Y007686D01*
X024600Y007686D01*
X024625Y007661D01*
X024625Y007611D01*
X024524Y007661D02*
X024524Y007736D01*
X024625Y007736D01*
X024477Y007711D02*
X024477Y007661D01*
X024452Y007636D01*
X024377Y007636D01*
X024377Y007586D02*
X024377Y007736D01*
X024452Y007736D01*
X024477Y007711D01*
X024427Y007636D02*
X024477Y007586D01*
X018883Y010057D02*
X018783Y009957D01*
X018783Y009932D01*
X018735Y009957D02*
X018710Y009932D01*
X018660Y009932D01*
X018635Y009957D01*
X018635Y010057D01*
X018660Y010082D01*
X018710Y010082D01*
X018735Y010057D01*
X018783Y010082D02*
X018883Y010082D01*
X018883Y010057D01*
X018577Y009892D02*
X018477Y009892D01*
X018477Y009817D01*
X018527Y009842D01*
X018552Y009842D01*
X018577Y009817D01*
X018577Y009767D01*
X018552Y009742D01*
X018502Y009742D01*
X018477Y009767D01*
X018430Y009767D02*
X018405Y009742D01*
X018355Y009742D01*
X018330Y009767D01*
X018330Y009867D01*
X018355Y009892D01*
X018405Y009892D01*
X018430Y009867D01*
X016604Y009041D02*
X016454Y009041D01*
X016529Y008966D01*
X016529Y009066D01*
X016579Y008919D02*
X016604Y008894D01*
X016604Y008844D01*
X016579Y008819D01*
X016479Y008819D01*
X016454Y008844D01*
X016454Y008894D01*
X016479Y008919D01*
X015095Y009783D02*
X014995Y009783D01*
X015045Y009783D02*
X015045Y009933D01*
X014995Y009883D01*
X014948Y009908D02*
X014923Y009933D01*
X014873Y009933D01*
X014848Y009908D01*
X014848Y009808D01*
X014873Y009783D01*
X014923Y009783D01*
X014948Y009808D01*
X014765Y009743D02*
X014690Y009668D01*
X014790Y009668D01*
X014765Y009593D02*
X014765Y009743D01*
X014643Y009718D02*
X014643Y009668D01*
X014618Y009643D01*
X014542Y009643D01*
X014542Y009593D02*
X014542Y009743D01*
X014618Y009743D01*
X014643Y009718D01*
X014593Y009643D02*
X014643Y009593D01*
X014873Y008051D02*
X014848Y008026D01*
X014848Y007926D01*
X014873Y007901D01*
X014923Y007901D01*
X014948Y007926D01*
X014995Y007901D02*
X015095Y008001D01*
X015095Y008026D01*
X015070Y008051D01*
X015020Y008051D01*
X014995Y008026D01*
X014948Y008026D02*
X014923Y008051D01*
X014873Y008051D01*
X014766Y007930D02*
X014766Y007905D01*
X014741Y007880D01*
X014766Y007855D01*
X014766Y007830D01*
X014741Y007805D01*
X014691Y007805D01*
X014666Y007830D01*
X014619Y007805D02*
X014569Y007855D01*
X014594Y007855D02*
X014519Y007855D01*
X014519Y007805D02*
X014519Y007955D01*
X014594Y007955D01*
X014619Y007930D01*
X014619Y007880D01*
X014594Y007855D01*
X014666Y007930D02*
X014691Y007955D01*
X014741Y007955D01*
X014766Y007930D01*
X014741Y007880D02*
X014716Y007880D01*
X014995Y007901D02*
X015095Y007901D01*
X020944Y011440D02*
X020944Y011515D01*
X020969Y011540D01*
X021019Y011540D01*
X021044Y011515D01*
X021044Y011440D01*
X021094Y011440D02*
X020944Y011440D01*
X021044Y011490D02*
X021094Y011540D01*
X021069Y011587D02*
X021094Y011612D01*
X021094Y011663D01*
X021069Y011688D01*
X021044Y011688D01*
X021019Y011663D01*
X021019Y011587D01*
X021069Y011587D01*
X021019Y011587D02*
X020969Y011637D01*
X020944Y011688D01*
X021771Y013238D02*
X021871Y013238D01*
X021896Y013263D01*
X021896Y013313D01*
X021871Y013338D01*
X021871Y013385D02*
X021846Y013385D01*
X021821Y013410D01*
X021821Y013460D01*
X021846Y013485D01*
X021871Y013485D01*
X021896Y013460D01*
X021896Y013410D01*
X021871Y013385D01*
X021821Y013410D02*
X021796Y013385D01*
X021771Y013385D01*
X021746Y013410D01*
X021746Y013460D01*
X021771Y013485D01*
X021796Y013485D01*
X021821Y013460D01*
X021771Y013338D02*
X021746Y013313D01*
X021746Y013263D01*
X021771Y013238D01*
X017840Y015024D02*
X017740Y015024D01*
X017790Y015024D02*
X017790Y015174D01*
X017740Y015124D01*
X017693Y015174D02*
X017693Y015049D01*
X017668Y015024D01*
X017618Y015024D01*
X017592Y015049D01*
X017592Y015174D01*
X015095Y013939D02*
X015070Y013964D01*
X015020Y013964D01*
X014995Y013939D01*
X014948Y013939D02*
X014948Y013889D01*
X014923Y013864D01*
X014848Y013864D01*
X014848Y013814D02*
X014848Y013964D01*
X014923Y013964D01*
X014948Y013939D01*
X014898Y013864D02*
X014948Y013814D01*
X014995Y013814D02*
X015095Y013914D01*
X015095Y013939D01*
X015095Y013814D02*
X014995Y013814D01*
X015493Y012182D02*
X015644Y012182D01*
X015644Y012132D02*
X015644Y012232D01*
X015543Y012132D02*
X015493Y012182D01*
X015518Y012085D02*
X015618Y012085D01*
X015644Y012060D01*
X015644Y012010D01*
X015618Y011985D01*
X015518Y011985D01*
X015493Y012010D01*
X015493Y012060D01*
X015518Y012085D01*
X015593Y012035D02*
X015644Y012085D01*
X014790Y015624D02*
X014690Y015624D01*
X014643Y015624D02*
X014593Y015674D01*
X014618Y015674D02*
X014542Y015674D01*
X014542Y015624D02*
X014542Y015774D01*
X014618Y015774D01*
X014643Y015749D01*
X014643Y015699D01*
X014618Y015674D01*
X014690Y015724D02*
X014740Y015774D01*
X014740Y015624D01*
X022289Y016251D02*
X022289Y016401D01*
X022364Y016401D01*
X022389Y016376D01*
X022389Y016326D01*
X022364Y016301D01*
X022289Y016301D01*
X022339Y016301D02*
X022389Y016251D01*
X022436Y016251D02*
X022436Y016276D01*
X022536Y016376D01*
X022536Y016401D01*
X022436Y016401D01*
X031759Y015600D02*
X031692Y015579D01*
X031692Y015580D02*
X031670Y015644D01*
X031645Y015707D01*
X031616Y015768D01*
X031583Y015828D01*
X031547Y015885D01*
X031508Y015941D01*
X031466Y015994D01*
X031421Y016044D01*
X031373Y016092D01*
X031322Y016137D01*
X031269Y016179D01*
X031213Y016218D01*
X031155Y016254D01*
X031096Y016286D01*
X031034Y016315D01*
X030971Y016340D01*
X030907Y016362D01*
X030842Y016380D01*
X030775Y016394D01*
X030708Y016404D01*
X030641Y016410D01*
X030573Y016413D01*
X030505Y016412D01*
X030438Y016406D01*
X030370Y016397D01*
X030304Y016384D01*
X030238Y016367D01*
X030173Y016347D01*
X030110Y016323D01*
X030048Y016295D01*
X029988Y016264D01*
X029930Y016229D01*
X029873Y016191D01*
X029820Y016150D01*
X029768Y016106D01*
X029719Y016059D01*
X029673Y016009D01*
X029630Y015957D01*
X029590Y015902D01*
X029553Y015845D01*
X029519Y015786D01*
X029489Y015725D01*
X029463Y015663D01*
X029440Y015599D01*
X029374Y015620D01*
X029373Y015620D01*
X029396Y015685D01*
X029423Y015749D01*
X029453Y015810D01*
X029487Y015870D01*
X029523Y015928D01*
X029563Y015984D01*
X029606Y016038D01*
X029652Y016090D01*
X029700Y016138D01*
X029751Y016184D01*
X029805Y016227D01*
X029861Y016267D01*
X029919Y016304D01*
X029979Y016338D01*
X030040Y016369D01*
X030103Y016396D01*
X030168Y016419D01*
X030234Y016439D01*
X030301Y016455D01*
X030368Y016468D01*
X030436Y016477D01*
X030505Y016482D01*
X030574Y016483D01*
X030642Y016480D01*
X030711Y016474D01*
X030779Y016464D01*
X030846Y016451D01*
X030913Y016433D01*
X030978Y016412D01*
X031042Y016388D01*
X031105Y016360D01*
X031166Y016328D01*
X031225Y016293D01*
X031283Y016255D01*
X031338Y016214D01*
X031391Y016170D01*
X031441Y016124D01*
X031489Y016074D01*
X031534Y016022D01*
X031576Y015967D01*
X031614Y015911D01*
X031650Y015852D01*
X031683Y015791D01*
X031712Y015729D01*
X031737Y015665D01*
X031759Y015600D01*
X031751Y015598D01*
X031728Y015664D01*
X031702Y015728D01*
X031672Y015791D01*
X031639Y015853D01*
X031603Y015912D01*
X031563Y015969D01*
X031520Y016024D01*
X031474Y016077D01*
X031425Y016127D01*
X031373Y016174D01*
X031319Y016218D01*
X031263Y016258D01*
X031204Y016296D01*
X031143Y016330D01*
X031081Y016361D01*
X031016Y016388D01*
X030951Y016412D01*
X030884Y016432D01*
X030816Y016448D01*
X030747Y016460D01*
X030678Y016469D01*
X030608Y016473D01*
X030539Y016474D01*
X030469Y016470D01*
X030400Y016463D01*
X030331Y016452D01*
X030263Y016437D01*
X030195Y016418D01*
X030129Y016396D01*
X030065Y016370D01*
X030002Y016340D01*
X029940Y016307D01*
X029881Y016270D01*
X029824Y016230D01*
X029769Y016187D01*
X029716Y016141D01*
X029667Y016092D01*
X029620Y016041D01*
X029576Y015986D01*
X029535Y015930D01*
X029497Y015871D01*
X029463Y015810D01*
X029432Y015748D01*
X029405Y015683D01*
X029382Y015618D01*
X029390Y015615D01*
X029414Y015680D01*
X029441Y015744D01*
X029471Y015806D01*
X029505Y015866D01*
X029542Y015925D01*
X029583Y015981D01*
X029627Y016035D01*
X029673Y016086D01*
X029723Y016135D01*
X029775Y016180D01*
X029829Y016223D01*
X029886Y016263D01*
X029945Y016299D01*
X030006Y016332D01*
X030068Y016361D01*
X030132Y016387D01*
X030198Y016410D01*
X030265Y016428D01*
X030332Y016443D01*
X030401Y016454D01*
X030470Y016461D01*
X030539Y016465D01*
X030608Y016464D01*
X030677Y016460D01*
X030746Y016451D01*
X030814Y016439D01*
X030881Y016423D01*
X030948Y016403D01*
X031013Y016380D01*
X031077Y016353D01*
X031139Y016322D01*
X031199Y016288D01*
X031258Y016251D01*
X031314Y016210D01*
X031367Y016167D01*
X031419Y016120D01*
X031467Y016071D01*
X031513Y016019D01*
X031556Y015964D01*
X031595Y015907D01*
X031631Y015848D01*
X031664Y015787D01*
X031694Y015725D01*
X031720Y015661D01*
X031742Y015595D01*
X031733Y015592D01*
X031711Y015657D01*
X031686Y015721D01*
X031656Y015783D01*
X031624Y015844D01*
X031588Y015902D01*
X031548Y015959D01*
X031506Y016013D01*
X031461Y016065D01*
X031412Y016114D01*
X031362Y016160D01*
X031308Y016203D01*
X031252Y016244D01*
X031195Y016281D01*
X031135Y016314D01*
X031073Y016345D01*
X031010Y016372D01*
X030945Y016395D01*
X030879Y016414D01*
X030812Y016430D01*
X030745Y016442D01*
X030676Y016451D01*
X030608Y016455D01*
X030539Y016456D01*
X030470Y016452D01*
X030402Y016445D01*
X030334Y016434D01*
X030267Y016420D01*
X030201Y016401D01*
X030136Y016379D01*
X030072Y016353D01*
X030010Y016324D01*
X029949Y016291D01*
X029891Y016255D01*
X029834Y016216D01*
X029780Y016173D01*
X029729Y016128D01*
X029680Y016080D01*
X029633Y016029D01*
X029590Y015975D01*
X029550Y015920D01*
X029513Y015862D01*
X029479Y015802D01*
X029449Y015740D01*
X029422Y015677D01*
X029399Y015612D01*
X029407Y015609D01*
X029430Y015674D01*
X029457Y015736D01*
X029487Y015798D01*
X029521Y015857D01*
X029557Y015915D01*
X029597Y015970D01*
X029640Y016023D01*
X029686Y016074D01*
X029735Y016121D01*
X029786Y016166D01*
X029840Y016209D01*
X029896Y016248D01*
X029954Y016283D01*
X030014Y016316D01*
X030076Y016345D01*
X030139Y016371D01*
X030203Y016393D01*
X030269Y016411D01*
X030336Y016426D01*
X030403Y016436D01*
X030471Y016444D01*
X030539Y016447D01*
X030607Y016446D01*
X030676Y016442D01*
X030743Y016434D01*
X030810Y016422D01*
X030877Y016406D01*
X030942Y016386D01*
X031006Y016363D01*
X031069Y016337D01*
X031130Y016306D01*
X031190Y016273D01*
X031247Y016236D01*
X031303Y016196D01*
X031356Y016153D01*
X031406Y016107D01*
X031454Y016059D01*
X031499Y016007D01*
X031541Y015954D01*
X031580Y015898D01*
X031616Y015839D01*
X031648Y015779D01*
X031677Y015718D01*
X031703Y015654D01*
X031725Y015590D01*
X031716Y015587D01*
X031694Y015651D01*
X031669Y015714D01*
X031640Y015775D01*
X031608Y015835D01*
X031573Y015893D01*
X031534Y015948D01*
X031492Y016002D01*
X031447Y016052D01*
X031400Y016101D01*
X031350Y016146D01*
X031297Y016189D01*
X031242Y016229D01*
X031185Y016265D01*
X031126Y016299D01*
X031066Y016328D01*
X031003Y016355D01*
X030939Y016378D01*
X030875Y016397D01*
X030809Y016413D01*
X030742Y016425D01*
X030675Y016433D01*
X030607Y016437D01*
X030539Y016438D01*
X030472Y016435D01*
X030404Y016428D01*
X030337Y016417D01*
X030271Y016402D01*
X030206Y016384D01*
X030142Y016362D01*
X030079Y016337D01*
X030018Y016308D01*
X029958Y016276D01*
X029901Y016240D01*
X029845Y016201D01*
X029792Y016160D01*
X029741Y016115D01*
X029693Y016067D01*
X029647Y016017D01*
X029604Y015965D01*
X029565Y015910D01*
X029528Y015853D01*
X029495Y015794D01*
X029465Y015733D01*
X029439Y015670D01*
X029416Y015607D01*
X029425Y015604D01*
X029448Y015669D01*
X029475Y015732D01*
X029505Y015793D01*
X029539Y015853D01*
X029577Y015911D01*
X029617Y015966D01*
X029661Y016019D01*
X029708Y016070D01*
X029757Y016118D01*
X029809Y016162D01*
X029864Y016204D01*
X029921Y016242D01*
X029980Y016278D01*
X030041Y016309D01*
X030104Y016338D01*
X030168Y016362D01*
X030234Y016383D01*
X030300Y016400D01*
X030368Y016413D01*
X030436Y016422D01*
X030504Y016428D01*
X030573Y016429D01*
X030642Y016426D01*
X030710Y016420D01*
X030778Y016410D01*
X030846Y016395D01*
X030912Y016377D01*
X030977Y016355D01*
X031041Y016330D01*
X031103Y016300D01*
X031164Y016268D01*
X031222Y016231D01*
X031278Y016192D01*
X031332Y016149D01*
X031384Y016104D01*
X031432Y016055D01*
X031478Y016004D01*
X031521Y015950D01*
X031561Y015894D01*
X031597Y015836D01*
X031630Y015775D01*
X031660Y015713D01*
X031685Y015650D01*
X031708Y015585D01*
X031699Y015582D01*
X031677Y015646D01*
X031651Y015710D01*
X031622Y015771D01*
X031589Y015831D01*
X031553Y015889D01*
X031514Y015945D01*
X031471Y015998D01*
X031426Y016049D01*
X031377Y016097D01*
X031326Y016143D01*
X031273Y016185D01*
X031217Y016224D01*
X031159Y016260D01*
X031099Y016292D01*
X031037Y016321D01*
X030974Y016347D01*
X030909Y016368D01*
X030843Y016386D01*
X030777Y016401D01*
X030709Y016411D01*
X030641Y016417D01*
X030573Y016420D01*
X030505Y016419D01*
X030437Y016413D01*
X030369Y016404D01*
X030302Y016391D01*
X030236Y016374D01*
X030171Y016354D01*
X030107Y016329D01*
X030045Y016301D01*
X029985Y016270D01*
X029926Y016235D01*
X029869Y016197D01*
X029815Y016155D01*
X029763Y016111D01*
X029714Y016064D01*
X029668Y016013D01*
X029624Y015961D01*
X029584Y015906D01*
X029547Y015849D01*
X029513Y015789D01*
X029483Y015728D01*
X029456Y015665D01*
X029433Y015601D01*
X029373Y014862D02*
X029440Y014883D01*
X029440Y014882D02*
X029462Y014818D01*
X029487Y014755D01*
X029516Y014694D01*
X029549Y014634D01*
X029585Y014577D01*
X029624Y014521D01*
X029666Y014468D01*
X029711Y014418D01*
X029759Y014370D01*
X029810Y014325D01*
X029863Y014283D01*
X029919Y014244D01*
X029977Y014208D01*
X030036Y014176D01*
X030098Y014147D01*
X030161Y014122D01*
X030225Y014100D01*
X030290Y014082D01*
X030357Y014068D01*
X030424Y014058D01*
X030491Y014052D01*
X030559Y014049D01*
X030627Y014050D01*
X030694Y014056D01*
X030762Y014065D01*
X030828Y014078D01*
X030894Y014095D01*
X030959Y014115D01*
X031022Y014139D01*
X031084Y014167D01*
X031144Y014198D01*
X031202Y014233D01*
X031259Y014271D01*
X031312Y014312D01*
X031364Y014356D01*
X031413Y014403D01*
X031459Y014453D01*
X031502Y014505D01*
X031542Y014560D01*
X031579Y014617D01*
X031613Y014676D01*
X031643Y014737D01*
X031669Y014799D01*
X031692Y014863D01*
X031758Y014842D01*
X031759Y014842D01*
X031736Y014777D01*
X031709Y014713D01*
X031679Y014652D01*
X031645Y014592D01*
X031609Y014534D01*
X031569Y014478D01*
X031526Y014424D01*
X031480Y014372D01*
X031432Y014324D01*
X031381Y014278D01*
X031327Y014235D01*
X031271Y014195D01*
X031213Y014158D01*
X031153Y014124D01*
X031092Y014093D01*
X031029Y014066D01*
X030964Y014043D01*
X030898Y014023D01*
X030831Y014007D01*
X030764Y013994D01*
X030696Y013985D01*
X030627Y013980D01*
X030558Y013979D01*
X030490Y013982D01*
X030421Y013988D01*
X030353Y013998D01*
X030286Y014011D01*
X030219Y014029D01*
X030154Y014050D01*
X030090Y014074D01*
X030027Y014102D01*
X029966Y014134D01*
X029907Y014169D01*
X029849Y014207D01*
X029794Y014248D01*
X029741Y014292D01*
X029691Y014338D01*
X029643Y014388D01*
X029598Y014440D01*
X029556Y014495D01*
X029518Y014551D01*
X029482Y014610D01*
X029449Y014671D01*
X029420Y014733D01*
X029395Y014797D01*
X029373Y014862D01*
X029381Y014864D01*
X029404Y014798D01*
X029430Y014734D01*
X029460Y014671D01*
X029493Y014609D01*
X029529Y014550D01*
X029569Y014493D01*
X029612Y014438D01*
X029658Y014385D01*
X029707Y014335D01*
X029759Y014288D01*
X029813Y014244D01*
X029869Y014204D01*
X029928Y014166D01*
X029989Y014132D01*
X030051Y014101D01*
X030116Y014074D01*
X030181Y014050D01*
X030248Y014030D01*
X030316Y014014D01*
X030385Y014002D01*
X030454Y013993D01*
X030524Y013989D01*
X030593Y013988D01*
X030663Y013992D01*
X030732Y013999D01*
X030801Y014010D01*
X030869Y014025D01*
X030937Y014044D01*
X031003Y014066D01*
X031067Y014092D01*
X031130Y014122D01*
X031192Y014155D01*
X031251Y014192D01*
X031308Y014232D01*
X031363Y014275D01*
X031416Y014321D01*
X031465Y014370D01*
X031512Y014421D01*
X031556Y014476D01*
X031597Y014532D01*
X031635Y014591D01*
X031669Y014652D01*
X031700Y014714D01*
X031727Y014779D01*
X031750Y014844D01*
X031742Y014847D01*
X031718Y014782D01*
X031691Y014718D01*
X031661Y014656D01*
X031627Y014596D01*
X031590Y014537D01*
X031549Y014481D01*
X031505Y014427D01*
X031459Y014376D01*
X031409Y014327D01*
X031357Y014282D01*
X031303Y014239D01*
X031246Y014199D01*
X031187Y014163D01*
X031126Y014130D01*
X031064Y014101D01*
X031000Y014075D01*
X030934Y014052D01*
X030867Y014034D01*
X030800Y014019D01*
X030731Y014008D01*
X030662Y014001D01*
X030593Y013997D01*
X030524Y013998D01*
X030455Y014002D01*
X030386Y014011D01*
X030318Y014023D01*
X030251Y014039D01*
X030184Y014059D01*
X030119Y014082D01*
X030055Y014109D01*
X029993Y014140D01*
X029933Y014174D01*
X029874Y014211D01*
X029818Y014252D01*
X029765Y014295D01*
X029713Y014342D01*
X029665Y014391D01*
X029619Y014443D01*
X029576Y014498D01*
X029537Y014555D01*
X029501Y014614D01*
X029468Y014675D01*
X029438Y014737D01*
X029412Y014801D01*
X029390Y014867D01*
X029399Y014870D01*
X029421Y014805D01*
X029446Y014741D01*
X029476Y014679D01*
X029508Y014618D01*
X029544Y014560D01*
X029584Y014503D01*
X029626Y014449D01*
X029671Y014397D01*
X029720Y014348D01*
X029770Y014302D01*
X029824Y014259D01*
X029880Y014218D01*
X029937Y014181D01*
X029997Y014148D01*
X030059Y014117D01*
X030122Y014090D01*
X030187Y014067D01*
X030253Y014048D01*
X030320Y014032D01*
X030387Y014020D01*
X030456Y014011D01*
X030524Y014007D01*
X030593Y014006D01*
X030662Y014010D01*
X030730Y014017D01*
X030798Y014028D01*
X030865Y014042D01*
X030931Y014061D01*
X030996Y014083D01*
X031060Y014109D01*
X031122Y014138D01*
X031183Y014171D01*
X031241Y014207D01*
X031298Y014246D01*
X031352Y014289D01*
X031403Y014334D01*
X031452Y014382D01*
X031499Y014433D01*
X031542Y014487D01*
X031582Y014542D01*
X031619Y014600D01*
X031653Y014660D01*
X031683Y014722D01*
X031710Y014785D01*
X031733Y014850D01*
X031725Y014853D01*
X031702Y014788D01*
X031675Y014726D01*
X031645Y014664D01*
X031611Y014605D01*
X031575Y014547D01*
X031535Y014492D01*
X031492Y014439D01*
X031446Y014388D01*
X031397Y014341D01*
X031346Y014296D01*
X031292Y014253D01*
X031236Y014214D01*
X031178Y014179D01*
X031118Y014146D01*
X031056Y014117D01*
X030993Y014091D01*
X030929Y014069D01*
X030863Y014051D01*
X030796Y014036D01*
X030729Y014026D01*
X030661Y014018D01*
X030593Y014015D01*
X030525Y014016D01*
X030456Y014020D01*
X030389Y014028D01*
X030322Y014040D01*
X030255Y014056D01*
X030190Y014076D01*
X030126Y014099D01*
X030063Y014125D01*
X030002Y014156D01*
X029942Y014189D01*
X029885Y014226D01*
X029829Y014266D01*
X029776Y014309D01*
X029726Y014355D01*
X029678Y014403D01*
X029633Y014455D01*
X029591Y014508D01*
X029552Y014564D01*
X029516Y014623D01*
X029484Y014683D01*
X029455Y014744D01*
X029429Y014808D01*
X029407Y014872D01*
X029416Y014875D01*
X029438Y014811D01*
X029463Y014748D01*
X029492Y014687D01*
X029524Y014627D01*
X029559Y014569D01*
X029598Y014514D01*
X029640Y014460D01*
X029685Y014410D01*
X029732Y014361D01*
X029782Y014316D01*
X029835Y014273D01*
X029890Y014233D01*
X029947Y014197D01*
X030006Y014163D01*
X030066Y014134D01*
X030129Y014107D01*
X030193Y014084D01*
X030257Y014065D01*
X030323Y014049D01*
X030390Y014037D01*
X030457Y014029D01*
X030525Y014025D01*
X030593Y014024D01*
X030660Y014027D01*
X030728Y014034D01*
X030795Y014045D01*
X030861Y014060D01*
X030926Y014078D01*
X030990Y014100D01*
X031053Y014125D01*
X031114Y014154D01*
X031174Y014186D01*
X031231Y014222D01*
X031287Y014261D01*
X031340Y014302D01*
X031391Y014347D01*
X031439Y014395D01*
X031485Y014445D01*
X031528Y014497D01*
X031567Y014552D01*
X031604Y014609D01*
X031637Y014668D01*
X031667Y014729D01*
X031693Y014792D01*
X031716Y014855D01*
X031707Y014858D01*
X031684Y014793D01*
X031657Y014730D01*
X031627Y014669D01*
X031593Y014609D01*
X031555Y014551D01*
X031515Y014496D01*
X031471Y014443D01*
X031424Y014392D01*
X031375Y014344D01*
X031323Y014300D01*
X031268Y014258D01*
X031211Y014220D01*
X031152Y014184D01*
X031091Y014153D01*
X031028Y014124D01*
X030964Y014100D01*
X030898Y014079D01*
X030832Y014062D01*
X030764Y014049D01*
X030696Y014040D01*
X030628Y014034D01*
X030559Y014033D01*
X030490Y014036D01*
X030422Y014042D01*
X030354Y014052D01*
X030286Y014067D01*
X030220Y014085D01*
X030155Y014107D01*
X030091Y014132D01*
X030029Y014162D01*
X029968Y014194D01*
X029910Y014231D01*
X029854Y014270D01*
X029800Y014313D01*
X029748Y014358D01*
X029700Y014407D01*
X029654Y014458D01*
X029611Y014512D01*
X029571Y014568D01*
X029535Y014626D01*
X029502Y014687D01*
X029472Y014749D01*
X029447Y014812D01*
X029424Y014877D01*
X029433Y014880D01*
X029455Y014816D01*
X029481Y014752D01*
X029510Y014691D01*
X029543Y014631D01*
X029579Y014573D01*
X029618Y014517D01*
X029661Y014464D01*
X029706Y014413D01*
X029755Y014365D01*
X029806Y014319D01*
X029859Y014277D01*
X029915Y014238D01*
X029973Y014202D01*
X030033Y014170D01*
X030095Y014141D01*
X030158Y014115D01*
X030223Y014094D01*
X030289Y014076D01*
X030355Y014061D01*
X030423Y014051D01*
X030491Y014045D01*
X030559Y014042D01*
X030627Y014043D01*
X030695Y014049D01*
X030763Y014058D01*
X030830Y014071D01*
X030896Y014088D01*
X030961Y014108D01*
X031025Y014133D01*
X031087Y014161D01*
X031147Y014192D01*
X031206Y014227D01*
X031263Y014265D01*
X031317Y014307D01*
X031369Y014351D01*
X031418Y014398D01*
X031464Y014449D01*
X031508Y014501D01*
X031548Y014556D01*
X031585Y014613D01*
X031619Y014673D01*
X031649Y014734D01*
X031676Y014797D01*
X031699Y014861D01*
D15*
X031865Y014798D02*
X031865Y013932D01*
X029621Y013932D01*
X029267Y014286D01*
X029267Y014798D01*
X029267Y015664D02*
X029267Y016176D01*
X029621Y016530D01*
X031865Y016530D01*
X031865Y015664D01*
X021436Y009477D02*
X021186Y009727D01*
X019686Y009727D01*
X019436Y009477D01*
X019436Y008977D01*
X019686Y008727D01*
X021186Y008727D01*
X021436Y008977D01*
X021436Y009477D01*
X021186Y008727D02*
X021436Y008477D01*
X021436Y007977D01*
X021186Y007727D01*
X019686Y007727D01*
X019436Y007977D01*
X019436Y008477D01*
X019686Y008727D01*
X017625Y008830D02*
X016680Y008830D01*
X016680Y009420D01*
X017625Y009420D02*
X017625Y008830D01*
X019436Y007477D02*
X019686Y007727D01*
X019436Y007477D02*
X019436Y006977D01*
X019686Y006727D01*
X021186Y006727D01*
X021436Y006977D01*
X021436Y007477D01*
X021186Y007727D01*
X021568Y007477D02*
X021568Y006977D01*
X022879Y006981D02*
X022879Y007256D01*
X023115Y007492D01*
X023115Y007020D01*
X022879Y007256D01*
X022879Y007532D01*
X017625Y010208D02*
X017625Y010641D01*
X017467Y010798D01*
X016837Y010798D01*
X016680Y010641D01*
X016680Y010208D01*
X016404Y011621D02*
X015893Y011621D01*
X015893Y013038D02*
X016404Y013038D01*
X029916Y009521D02*
X029916Y006941D01*
X031216Y006941D01*
X031216Y009521D01*
X029916Y009521D01*
D16*
X017552Y009964D02*
X016752Y009964D01*
D17*
X029286Y011121D02*
X029286Y011357D01*
X029286Y011121D02*
X029956Y010452D01*
X031845Y010452D01*
X031845Y011357D01*
X031845Y012105D02*
X031845Y013011D01*
X029956Y013011D01*
X029286Y012341D01*
X029286Y012105D01*
M02*
